<svg width="143" height="80" viewBox="0 0 143 80" fill="none" xmlns="http://www.w3.org/2000/svg">
<path d="M37.432 33.1121H39.032V44.2481H43.832V45.8481H37.432V33.1121ZM48.816 33.1121C49.7654 33.1121 50.6934 33.3936 51.4827 33.921C52.2721 34.4484 52.8873 35.1981 53.2506 36.0752C53.6139 36.9523 53.709 37.9174 53.5238 38.8485C53.3386 39.7796 52.8814 40.6349 52.2101 41.3062C51.5388 41.9775 50.6835 42.4346 49.7524 42.6198C48.8213 42.805 47.8562 42.71 46.9791 42.3467C46.102 41.9834 45.3524 41.3682 44.825 40.5788C44.2975 39.7894 44.016 38.8614 44.016 37.9121C44.016 37.2817 44.1402 36.6575 44.3814 36.0752C44.6226 35.4928 44.9762 34.9637 45.4219 34.5179C45.8676 34.0722 46.3968 33.7187 46.9791 33.4774C47.5615 33.2362 48.1857 33.1121 48.816 33.1121ZM48.816 41.1121C49.4489 41.1121 50.0676 40.9244 50.5938 40.5728C51.1201 40.2211 51.5302 39.7214 51.7724 39.1366C52.0146 38.5519 52.078 37.9085 51.9545 37.2878C51.831 36.667 51.5263 36.0968 51.0787 35.6493C50.6312 35.2018 50.061 34.897 49.4403 34.7735C48.8196 34.6501 48.1761 34.7134 47.5914 34.9556C47.0067 35.1978 46.5069 35.608 46.1553 36.1342C45.8037 36.6605 45.616 37.2792 45.616 37.9121C45.6202 38.758 45.9592 39.5678 46.5589 40.1645C47.1586 40.7611 47.9701 41.0961 48.816 41.0961V41.1121ZM45.616 44.2641H52.016V45.8641H45.616V44.2641ZM66.096 45.8641H64.496V44.7201C63.4642 45.4423 62.2355 45.8305 60.976 45.8321C59.902 45.8392 58.8435 45.576 57.8979 45.0667C56.9524 44.5573 56.1502 43.8182 55.5653 42.9173C54.9805 42.0165 54.6317 40.983 54.5512 39.912C54.4707 38.841 54.661 37.767 55.1046 36.7888C55.5482 35.8107 56.2308 34.9599 57.0896 34.3149C57.9483 33.6699 58.9556 33.2514 60.0186 33.0979C61.0816 32.9444 62.1661 33.0609 63.1723 33.4367C64.1784 33.8124 65.0738 34.4354 65.776 35.2481L64.6 36.2961C64.066 35.699 63.3909 35.245 62.6365 34.9756C61.8821 34.7062 61.0723 34.6299 60.2808 34.7537C59.4893 34.8774 58.7414 35.1973 58.1052 35.6841C57.4691 36.171 56.9648 36.8093 56.6385 37.5409C56.3122 38.2725 56.1742 39.0742 56.2371 39.8728C56.3 40.6714 56.5617 41.4416 56.9985 42.1131C57.4352 42.7846 58.0331 43.3362 58.7377 43.7175C59.4422 44.0988 60.2309 44.2977 61.032 44.2961C61.6968 44.2974 62.3541 44.1552 62.9589 43.879C63.5636 43.6029 64.1016 43.1994 64.536 42.6961H60.216V41.0961H66.112L66.096 45.8641ZM71.984 33.1441C72.9333 33.1441 73.8614 33.4256 74.6507 33.953C75.4401 34.4804 76.0553 35.2301 76.4186 36.1072C76.7819 36.9843 76.877 37.9494 76.6918 38.8805C76.5066 39.8116 76.0494 40.6669 75.3781 41.3382C74.7068 42.0095 73.8515 42.4666 72.9204 42.6518C71.9893 42.837 71.0242 42.742 70.1471 42.3787C69.27 42.0154 68.5204 41.4002 67.9929 40.6108C67.4655 39.8214 67.184 38.8934 67.184 37.9441C67.1798 37.3097 67.3013 36.6807 67.5417 36.0936C67.782 35.5065 68.1363 34.9729 68.5842 34.5236C69.032 34.0742 69.5645 33.7181 70.1508 33.4759C70.7371 33.2336 71.3656 33.1099 72 33.1121L71.984 33.1441ZM71.984 41.1441C72.6169 41.1441 73.2356 40.9564 73.7618 40.6048C74.2881 40.2531 74.6982 39.7534 74.9404 39.1686C75.1826 38.5839 75.246 37.9405 75.1225 37.3198C74.999 36.699 74.6943 36.1288 74.2467 35.6813C73.7992 35.2338 73.229 34.929 72.6083 34.8055C71.9876 34.6821 71.3441 34.7454 70.7594 34.9876C70.1747 35.2298 69.6749 35.64 69.3233 36.1662C68.9717 36.6925 68.784 37.3112 68.784 37.9441C68.7966 38.7872 69.1415 39.5912 69.7438 40.1815C70.346 40.7717 71.1568 41.1004 72 41.0961L71.984 41.1441ZM68.784 44.2961H75.184V45.8961H68.784V44.2961ZM78.488 33.1121H80.088V45.8321H78.488V33.1121ZM82.304 33.1121H83.904C83.9864 33.1033 84.0696 33.1033 84.152 33.1121C84.8221 33.0394 85.5 33.1086 86.1415 33.3153C86.7831 33.522 87.3739 33.8614 87.8756 34.3116C88.3772 34.7618 88.7784 35.3125 89.0531 35.9281C89.3277 36.5436 89.4697 37.21 89.4697 37.8841C89.4697 38.5581 89.3277 39.2245 89.0531 39.8401C88.7784 40.4556 88.3772 41.0064 87.8756 41.4565C87.3739 41.9067 86.7831 42.2462 86.1415 42.4528C85.5 42.6595 84.8221 42.7288 84.152 42.6561H83.904V45.8561H82.304V33.1121ZM83.904 34.7121V41.0401H84.152C84.6039 41.1002 85.0635 41.0632 85.4999 40.9313C85.9363 40.7994 86.3395 40.5759 86.6825 40.2755C87.0255 39.9752 87.3004 39.605 87.4887 39.1898C87.677 38.7746 87.7744 38.324 87.7744 37.8681C87.7744 37.4122 87.677 36.9615 87.4887 36.5463C87.3004 36.1311 87.0255 35.7609 86.6825 35.4606C86.3395 35.1603 85.9363 34.9367 85.4999 34.8048C85.0635 34.673 84.6039 34.6359 84.152 34.6961C84.0648 34.7051 83.979 34.7239 83.896 34.7521L83.904 34.7121ZM95.432 34.0321L94.248 34.9681C94.0437 34.7546 93.7828 34.6039 93.4958 34.5337C93.2089 34.4634 92.9078 34.4765 92.628 34.5715C92.3483 34.6664 92.1014 34.8392 91.9165 35.0696C91.7315 35.3 91.6162 35.5784 91.584 35.8721V36.0001C91.584 36.7041 92.072 37.1761 93.024 37.2401C96.688 37.4641 98.368 39.1841 98.368 41.4561V41.6001C98.2734 42.4993 97.9225 43.3524 97.3571 44.058C96.7916 44.7635 96.0354 45.2919 95.1784 45.5801C94.3213 45.8683 93.3996 45.9042 92.5227 45.6837C91.6458 45.4632 90.8507 44.9954 90.232 44.3361L91.456 43.3921C91.7409 43.6974 92.0888 43.9371 92.4756 44.0946C92.8624 44.2521 93.2788 44.3235 93.696 44.3041C94.4665 44.3447 95.223 44.086 95.8073 43.5822C96.3917 43.0783 96.7588 42.3682 96.832 41.6001V41.4881C96.832 39.3521 94.736 38.9601 92.92 38.7841C91.24 38.6241 90.032 37.5761 90.032 36.0641V36.0001C90.0912 35.2129 90.4505 34.4785 91.0355 33.9485C91.6206 33.4185 92.3868 33.1334 93.176 33.1521C93.5942 33.1397 94.0103 33.2152 94.3976 33.3737C94.7848 33.5321 95.1344 33.7701 95.424 34.0721L95.432 34.0321ZM104.632 44.2081C106.624 44.2081 108.2 42.0561 108.2 39.4081V33.0081H109.8V39.4081C109.8 42.9281 107.496 45.7681 104.664 45.7681C101.832 45.7681 99.528 42.9281 99.528 39.4081V33.0081H101.128V39.4081C101.064 42.0961 102.64 44.2481 104.624 44.2481L104.632 44.2081ZM122.08 45.8081H120.48V37.8881L116.792 42.6881L113.104 37.8881V45.8321H111.504V33.1121L116.784 40.0641L122.064 33.1121L122.08 45.8081Z" fill="#9097AA"/>
<path d="M29.752 31.2C29.752 30.0458 29.2935 28.9389 28.4773 28.1227C27.6611 27.3065 26.5542 26.848 25.4 26.848C24.2458 26.848 23.1388 27.3065 22.3226 28.1227C21.5065 28.9389 21.048 30.0458 21.048 31.2V44.36L24.632 46.928V53.184H26.168V46.928L29.752 44.36V31.2ZM28.216 38.56L26.168 40.608V38.688L28.216 36.64V38.56ZM22.616 36.64L24.664 38.688V40.608L22.616 38.56V36.64ZM28.216 34.464L25.4 37.28L22.584 34.4V32.48L25.4 35.296L28.216 32.48V34.464ZM25.4 28.384C26.0193 28.3868 26.6206 28.5924 27.1119 28.9696C27.6032 29.3467 27.9573 29.8744 28.12 30.472L25.4 33.184L22.68 30.472C22.8367 29.8685 23.1883 29.3336 23.6801 28.9503C24.1719 28.5669 24.7764 28.3567 25.4 28.352V28.384ZM22.584 43.584V40.704L24.632 42.752V45.04L22.584 43.584ZM26.168 45.048V42.752L28.216 40.704V43.576L26.168 45.048Z" fill="#9097AA"/>
</svg>
