<svg width="143" height="80" viewBox="0 0 143 80" fill="none" xmlns="http://www.w3.org/2000/svg">
<path d="M71.6264 44.2992H67.5304V33.3488H71.6264V44.2992ZM67.9304 43.8992H71.2264V33.7488H67.9304V43.8992ZM77.3256 44.2992H73.312V33.3488H81.6976C82.8989 33.2515 84.0952 33.5888 85.0688 34.2992C85.4879 34.6826 85.8128 35.1577 86.018 35.6874C86.2233 36.2171 86.3033 36.7871 86.252 37.3528C86.3118 38.3304 86.0007 39.2945 85.3808 40.0528C84.6472 40.8944 83.4264 41.328 81.7528 41.3432C81.3312 41.3544 78.172 41.3432 77.328 41.3432L77.3256 44.2992ZM73.7096 43.8992H76.9256V40.9392H77.1264C77.1672 40.9392 81.2688 40.952 81.7432 40.9392C83.3024 40.9256 84.4232 40.5392 85.0784 39.7848C85.6302 39.0988 85.9043 38.2305 85.8464 37.352C85.8956 36.8451 85.8274 36.3337 85.647 35.8574C85.4667 35.3811 85.179 34.9528 84.8064 34.6056C83.9037 33.9577 82.7992 33.6535 81.692 33.748H73.712L73.7096 43.8992ZM80.848 38.8832H76.8984V35.9024H80.8744C81.1562 35.8634 81.4434 35.8963 81.7091 35.998C81.9748 36.0997 82.2105 36.2669 82.3944 36.484C82.5612 36.7615 82.6399 37.0832 82.62 37.4064C82.635 37.7065 82.5701 38.0052 82.432 38.272C82.2423 38.5007 81.997 38.6768 81.7196 38.7832C81.4421 38.8897 81.142 38.923 80.848 38.88V38.8832ZM77.2984 38.4832H80.848C81.504 38.4832 81.9104 38.3464 82.0904 38.0648C82.1895 37.8601 82.2344 37.6334 82.2208 37.4064C82.2383 37.168 82.1866 36.9297 82.072 36.72L82.0672 36.7128C81.8768 36.4328 81.4984 36.3024 80.8744 36.3024H77.2984V38.4832ZM93.552 44.4608C89.96 44.4608 87.816 43.5688 86.9992 41.7344C86.8656 41.3801 86.7748 41.0111 86.7288 40.6352L86.6936 40.4048H90.9672L90.9952 40.5728C91.0281 40.7434 91.1004 40.9039 91.2064 41.0416C91.3752 41.2456 91.9384 41.588 93.8072 41.588C96.0536 41.588 96.0536 41.1936 96.0536 40.9816C96.0536 40.624 95.7936 40.5016 93.9616 40.3064L93.6136 40.2736C92.924 40.2088 92.052 40.1264 91.6536 40.092C88.2936 39.788 86.7936 38.744 86.7936 36.708C86.7936 34.5696 89.3464 33.188 93.2976 33.188C96.5208 33.188 98.5976 34.0376 99.4688 35.7152C99.6755 36.1054 99.8143 36.528 99.8792 36.9648L99.9072 37.1896H95.6288L95.6112 37.0088C95.5945 36.8675 95.534 36.7349 95.4384 36.6296C95.2784 36.4152 94.7728 36.0608 93.2032 36.0608C91.276 36.0608 91.0104 36.3072 91.0104 36.5728C91.0104 36.9272 91.6192 37.0528 93.5704 37.2616C94.384 37.328 95.692 37.4624 96.14 37.5168C98.9568 37.8224 100.214 38.8408 100.214 40.82C100.214 42.48 99.0584 44.4608 93.552 44.4608ZM87.1608 40.8048C87.2009 41.0686 87.2699 41.3272 87.3664 41.576C88.1104 43.2472 90.1344 44.0608 93.552 44.0608C96.4096 44.0608 99.8168 43.5008 99.8168 40.82C99.8168 39.0656 98.7048 38.1968 96.0976 37.9144C95.6496 37.86 94.3496 37.7264 93.5376 37.6592C91.4576 37.4336 90.612 37.3136 90.612 36.5728C90.612 35.8064 91.5232 35.6608 93.2048 35.6608C94.5336 35.6608 95.392 35.9008 95.756 36.3848C95.8553 36.504 95.9303 36.6415 95.9768 36.7896H99.444C99.3742 36.4802 99.2639 36.1813 99.116 35.9008C98.316 34.3656 96.3616 33.588 93.2992 33.588C89.5912 33.588 87.1952 34.8128 87.1952 36.708C87.1952 38.516 88.54 39.4088 91.6904 39.6936C92.0904 39.728 92.9616 39.8104 93.6528 39.876L94.0032 39.9088C95.7048 40.088 96.4552 40.2 96.4552 40.9816C96.4552 41.8232 95.4848 41.988 93.8088 41.988C92.2584 41.988 91.2792 41.7552 90.9008 41.2968C90.7841 41.1506 90.6962 40.9837 90.6416 40.8048H87.1608ZM107.814 44.4472C103.638 44.4472 101.334 42.7584 101.334 39.6912V33.3488H105.375V39.6912C105.375 40.7432 106.317 41.3464 107.958 41.3464C109.526 41.3464 110.499 40.7168 110.499 39.7048V33.3488H114.499V40.0272C114.503 42.836 112.064 44.4472 107.811 44.4472H107.814ZM101.734 33.7488V39.6912C101.734 43.4816 105.54 44.0472 107.814 44.0472C110.164 44.0472 114.106 43.5248 114.106 40.0272V33.7488H110.906V39.7048C110.906 40.9448 109.75 41.7464 107.964 41.7464C106.097 41.7464 104.982 40.9784 104.982 39.6912V33.7488H101.734ZM131.45 44.2992H127.635V39.3552L125.472 44.2992H122.145L120.004 39.3648V44.2992H116.176V33.3488H121.211L123.827 39.3864L126.57 33.3488H131.454L131.45 44.2992ZM128.035 43.8992H131.05V33.7488H126.824L123.814 40.372L120.946 33.7488H116.573V43.8992H119.601V37.44L122.401 43.9016H125.201L128.03 37.4496L128.035 43.8992ZM15.9152 33.5488H12.272V44.0992H22.3392V41.2904H15.9152V33.5488ZM29.6928 33.3088C25.0424 33.3088 22.5968 35.5128 22.5968 38.7488C22.5968 42.4048 25.164 44.2592 29.6928 44.2592C34.6784 44.2592 36.7752 42.1088 36.7752 38.7488C36.7752 35.3368 34.4096 33.3072 29.6928 33.3072V33.3088ZM29.6792 36.0504C29.9958 36.0489 30.3121 36.0673 30.6264 36.1056L26.5536 40.1784C26.3608 39.7425 26.2669 39.2693 26.2784 38.7928C26.2784 37.1376 27.112 36.0488 29.6792 36.0488V36.0504ZM29.6928 41.5608C29.3878 41.5621 29.083 41.545 28.78 41.5096L32.86 37.4296C33.0456 37.8583 33.1343 38.3227 33.12 38.7896C33.12 40.4 32.352 41.5592 29.6928 41.5592V41.5608ZM43.9936 40.1208H47.7432C47.688 40.381 47.573 40.6248 47.4072 40.8328C46.6299 41.4661 45.6377 41.7743 44.6384 41.6928C44.1354 41.7466 43.6267 41.6917 43.1468 41.5317C42.6668 41.3717 42.2269 41.1104 41.8568 40.7656C41.4777 40.2095 41.2976 39.5417 41.3456 38.8704C41.2843 38.167 41.4801 37.4652 41.8968 36.8952C42.4208 36.3032 43.308 36.048 44.612 36.048C45.4417 35.9793 46.2704 36.1924 46.964 36.6528C47.1826 36.8264 47.3461 37.0599 47.4344 37.3248H50.912C50.8867 36.8884 50.7818 36.4602 50.6024 36.0616C49.7696 34.368 47.8336 33.36 44.5416 33.36C41.6784 33.36 39.7568 34.2336 38.6952 35.5512C37.9941 36.5027 37.6342 37.6627 37.6736 38.844C37.6283 40.052 37.9788 41.2417 38.672 42.232C39.7208 43.592 41.5888 44.2608 43.8336 44.2608C45.326 44.3649 46.8082 43.9469 48.0264 43.0784L48.1208 44.0992H51.0096V37.8496H43.9936V40.1208ZM59.2088 33.3064C54.5592 33.3064 52.1128 35.5104 52.1128 38.7464C52.1128 42.4024 54.6792 44.2568 59.2088 44.2568C64.1952 44.2568 66.292 42.1064 66.292 38.7464C66.292 35.3368 63.9264 33.3072 59.2088 33.3072V33.3064ZM59.196 36.048C59.5042 36.0471 59.8123 36.0647 60.1184 36.1008L56.0616 40.16C55.8749 39.7289 55.784 39.2624 55.7952 38.7928C55.792 37.1376 56.6288 36.0488 59.196 36.0488V36.048ZM59.2088 41.5584C58.8957 41.5597 58.5828 41.5415 58.272 41.504L62.3656 37.4096C62.5582 37.844 62.6503 38.3162 62.6352 38.7912C62.6368 40.4 61.872 41.5592 59.2088 41.5592V41.5584Z" fill="#9097AA"/>
</svg>
