<svg width="143" height="80" viewBox="0 0 143 80" fill="none" xmlns="http://www.w3.org/2000/svg">
<path d="M31.256 43.832H33.656V55.6H31.256V43.832Z" fill="#9097AA"/>
<path d="M35.048 51.568C35.0464 50.7227 35.2956 49.896 35.7641 49.1924C36.2325 48.4888 36.8991 47.94 37.6796 47.6155C38.4601 47.2909 39.3193 47.2051 40.1485 47.3691C40.9777 47.533 41.7397 47.9392 42.3379 48.5364C42.9362 49.1335 43.3438 49.8947 43.5093 50.7236C43.6748 51.5525 43.5907 52.4119 43.2676 53.1929C42.9445 53.974 42.3969 54.6417 41.6942 55.1114C40.9915 55.5812 40.1652 55.832 39.32 55.832C38.7579 55.8384 38.2001 55.7325 37.6795 55.5206C37.1588 55.3087 36.6856 54.995 36.2878 54.5979C35.8899 54.2007 35.5753 53.7282 35.3624 53.2079C35.1495 52.6876 35.0426 52.1301 35.048 51.568ZM41.176 51.568C41.1665 51.2031 41.0497 50.8491 40.8401 50.5502C40.6305 50.2514 40.3375 50.021 39.9976 49.8878C39.6578 49.7547 39.2862 49.7247 38.9294 49.8017C38.5726 49.8786 38.2464 50.0591 37.9916 50.3204C37.7368 50.5818 37.5647 50.9125 37.4969 51.2712C37.4291 51.6298 37.4686 52.0005 37.6103 52.3369C37.7521 52.6732 37.9899 52.9603 38.294 53.1622C38.5981 53.3641 38.955 53.4718 39.32 53.472C39.5697 53.479 39.8182 53.4341 40.0497 53.3403C40.2813 53.2464 40.4908 53.1056 40.6652 52.9267C40.8396 52.7478 40.975 52.5347 41.063 52.3008C41.1509 52.067 41.1893 51.8174 41.176 51.568Z" fill="#9097AA"/>
<path d="M53.24 47.536V55.2C53.24 57.912 51.12 59.056 48.976 59.056C48.2221 59.112 47.4672 58.9596 46.7942 58.6153C46.1211 58.271 45.5558 57.7481 45.16 57.104L47.224 55.912C47.3878 56.2421 47.6469 56.5154 47.9679 56.6966C48.2888 56.8777 48.6567 56.9583 49.024 56.928C49.2657 56.9682 49.5134 56.9525 49.748 56.8819C49.9827 56.8113 50.198 56.6877 50.3773 56.5208C50.5566 56.3538 50.6952 56.1479 50.7824 55.9189C50.8695 55.6899 50.9029 55.4439 50.88 55.2V54.456C50.5978 54.8031 50.2378 55.0789 49.8292 55.2609C49.4206 55.443 48.9748 55.5263 48.528 55.504C47.4417 55.504 46.3998 55.0724 45.6317 54.3043C44.8635 53.5361 44.432 52.4943 44.432 51.408C44.432 50.3216 44.8635 49.2798 45.6317 48.5116C46.3998 47.7435 47.4417 47.312 48.528 47.312C48.9746 47.2915 49.4197 47.3757 49.828 47.5576C50.2364 47.7395 50.5966 48.0143 50.88 48.36V47.56L53.24 47.536ZM50.88 51.408C50.896 51.0189 50.7952 50.6339 50.5906 50.3026C50.3861 49.9712 50.0871 49.7086 49.7321 49.5485C49.3771 49.3884 48.9824 49.3382 48.5986 49.4042C48.2148 49.4703 47.8596 49.6496 47.5785 49.9191C47.2975 50.1887 47.1035 50.5361 47.0214 50.9168C46.9394 51.2974 46.9731 51.6939 47.1182 52.0553C47.2633 52.4167 47.5132 52.7264 47.8357 52.9446C48.1582 53.1628 48.5386 53.2796 48.928 53.28C49.1822 53.2979 49.4373 53.2625 49.6769 53.1758C49.9165 53.0892 50.1354 52.9533 50.3193 52.777C50.5032 52.6006 50.6481 52.3877 50.7447 52.1519C50.8412 51.9161 50.8873 51.6627 50.88 51.408Z" fill="#9097AA"/>
<path d="M54.624 51.568C54.6224 50.7227 54.8717 49.896 55.3401 49.1924C55.8086 48.4888 56.4752 47.94 57.2557 47.6155C58.0361 47.2909 58.8953 47.2051 59.7245 47.3691C60.5538 47.533 61.3157 47.9392 61.914 48.5364C62.5122 49.1335 62.9199 49.8947 63.0854 50.7236C63.2508 51.5525 63.1667 52.4119 62.8436 53.1929C62.5205 53.974 61.973 54.6417 61.2703 55.1114C60.5676 55.5812 59.7413 55.832 58.896 55.832C58.3339 55.8384 57.7762 55.7325 57.2555 55.5206C56.7348 55.3087 56.2617 54.995 55.8638 54.5979C55.4659 54.2007 55.1514 53.7282 54.9385 53.2079C54.7256 52.6876 54.6187 52.1301 54.624 51.568ZM60.752 51.568C60.7426 51.2031 60.6258 50.8491 60.4162 50.5502C60.2066 50.2514 59.9135 50.021 59.5737 49.8878C59.2338 49.7547 58.8622 49.7247 58.5054 49.8017C58.1486 49.8786 57.8224 50.0591 57.5676 50.3204C57.3128 50.5818 57.1408 50.9125 57.073 51.2712C57.0052 51.6298 57.0446 52.0005 57.1864 52.3369C57.3282 52.6732 57.566 52.9603 57.8701 53.1622C58.1741 53.3641 58.531 53.4718 58.896 53.472C59.1444 53.4767 59.3912 53.4302 59.6208 53.3354C59.8504 53.2405 60.0581 53.0994 60.2307 52.9207C60.4034 52.742 60.5373 52.5297 60.6243 52.297C60.7112 52.0642 60.7493 51.8161 60.736 51.568H60.752Z" fill="#9097AA"/>
<path d="M64.28 45.376C64.28 45.0881 64.3654 44.8066 64.5254 44.5671C64.6854 44.3277 64.9128 44.1411 65.1788 44.0309C65.4449 43.9207 65.7376 43.8918 66.0201 43.948C66.3025 44.0042 66.5619 44.1429 66.7656 44.3465C66.9692 44.5501 67.1079 44.8096 67.164 45.092C67.2202 45.3744 67.1914 45.6672 67.0812 45.9332C66.971 46.1993 66.7844 46.4267 66.5449 46.5867C66.3055 46.7467 66.024 46.832 65.736 46.832C65.3505 46.8299 64.9814 46.6759 64.7088 46.4033C64.4362 46.1307 64.2821 45.7616 64.28 45.376ZM64.528 47.536H66.928V55.6H64.528V47.536Z" fill="#9097AA"/>
<path d="M77.392 51.568C77.4211 52.101 77.3445 52.6346 77.1666 53.1379C76.9886 53.6412 76.7129 54.1043 76.3552 54.5007C75.9976 54.897 75.5651 55.2186 75.0826 55.4471C74.6001 55.6756 74.0772 55.8064 73.544 55.832C73.0964 55.8535 72.6494 55.7765 72.2348 55.6065C71.8201 55.4365 71.4477 55.1776 71.144 54.848V58.848H68.744V47.536H71.144V48.296C71.4477 47.9664 71.8201 47.7075 72.2348 47.5375C72.6494 47.3675 73.0964 47.2905 73.544 47.312C74.0765 47.3376 74.5987 47.4681 75.0807 47.6961C75.5626 47.9241 75.9947 48.245 76.3523 48.6405C76.7098 49.036 76.9857 49.4982 77.1642 50.0005C77.3426 50.5029 77.42 51.0356 77.392 51.568ZM74.992 51.568C74.9825 51.1925 74.8631 50.8281 74.6485 50.5198C74.4339 50.2115 74.1337 49.9729 73.7849 49.8336C73.4361 49.6943 73.0541 49.6603 72.6861 49.7359C72.3182 49.8115 71.9806 49.9934 71.715 50.259C71.4494 50.5246 71.2675 50.8622 71.1919 51.2301C71.1163 51.598 71.1503 51.98 71.2896 52.3288C71.429 52.6776 71.6675 52.9779 71.9758 53.1925C72.2841 53.4071 72.6485 53.5265 73.024 53.536C73.2861 53.5527 73.5486 53.513 73.7941 53.4198C74.0395 53.3266 74.2622 53.1819 74.4471 52.9955C74.632 52.809 74.7749 52.5852 74.8661 52.339C74.9573 52.0928 74.9948 51.8299 74.976 51.568H74.992Z" fill="#9097AA"/>
<path d="M84.864 53.184C84.864 55.04 83.264 55.832 81.504 55.832C80.8009 55.8942 80.0953 55.7446 79.4779 55.4025C78.8606 55.0603 78.3598 54.5412 78.04 53.912L80.136 52.72C80.2211 53.011 80.4032 53.2641 80.652 53.4373C80.9009 53.6105 81.2015 53.6933 81.504 53.672C82.088 53.672 82.376 53.488 82.376 53.168C82.376 52.28 78.376 52.752 78.376 49.968C78.376 48.208 79.864 47.32 81.576 47.32C82.2077 47.3008 82.8331 47.4509 83.3873 47.7547C83.9415 48.0586 84.4044 48.5051 84.728 49.048L82.624 50.152C82.531 49.9407 82.3788 49.761 82.1856 49.6346C81.9925 49.5082 81.7668 49.4406 81.536 49.44C81.12 49.44 80.864 49.6 80.864 49.896C80.896 50.816 84.864 50.2 84.864 53.184Z" fill="#9097AA"/>
<path d="M93.696 47.536V55.6H91.296V54.848C91.0168 55.1821 90.6625 55.4455 90.2621 55.6165C89.8617 55.7875 89.4264 55.8614 88.992 55.832C87.392 55.832 85.976 54.672 85.976 52.488V47.536H88.376V52.136C88.3549 52.332 88.3777 52.5303 88.4428 52.7164C88.5079 52.9026 88.6135 53.0718 88.7522 53.212C88.8908 53.3522 89.059 53.4598 89.2444 53.5269C89.4298 53.594 89.6278 53.619 89.824 53.6C90.704 53.6 91.32 53.088 91.32 51.944V47.536H93.696Z" fill="#9097AA"/>
<path d="M107.568 50.6561V55.6001H105.168V50.8641C105.168 50.0641 104.776 49.5361 104.008 49.5361C103.24 49.5361 102.744 50.1041 102.744 51.0561V55.6001H100.344V50.8641C100.344 50.0641 99.96 49.5361 99.184 49.5361C98.408 49.5361 97.928 50.1041 97.928 51.0561V55.6001H95.528V47.5361H97.928V48.2801C98.1788 47.9515 98.5078 47.6908 98.8851 47.5217C99.2623 47.3527 99.6758 47.2806 100.088 47.3121C100.502 47.292 100.914 47.3794 101.284 47.5659C101.654 47.7523 101.97 48.0315 102.2 48.3761C102.468 48.0158 102.822 47.7292 103.231 47.5431C103.639 47.3571 104.088 47.2776 104.536 47.3121C106.36 47.3121 107.568 48.6401 107.568 50.6561Z" fill="#9097AA"/>
<path d="M109.616 47.4881C110.606 47.4881 111.408 46.6857 111.408 45.6961C111.408 44.7064 110.606 43.9041 109.616 43.9041C108.626 43.9041 107.824 44.7064 107.824 45.6961C107.824 46.6857 108.626 47.4881 109.616 47.4881Z" fill="#9097AA"/>
<path d="M58.416 37.728C63.0508 37.728 66.808 33.9707 66.808 29.336C66.808 24.7012 63.0508 20.944 58.416 20.944C53.7812 20.944 50.024 24.7012 50.024 29.336C50.024 33.9707 53.7812 37.728 58.416 37.728Z" fill="#9097AA"/>
<path d="M77.176 37.728C81.8108 37.728 85.568 33.9707 85.568 29.336C85.568 24.7012 81.8108 20.944 77.176 20.944C72.5412 20.944 68.784 24.7012 68.784 29.336C68.784 33.9707 72.5412 37.728 77.176 37.728Z" fill="#9097AA"/>
<path d="M48.048 20.944H31.272V37.72H48.048V20.944Z" fill="#9097AA"/>
</svg>
