<svg width="144" height="80" viewBox="0 0 144 80" fill="none" xmlns="http://www.w3.org/2000/svg">
<path d="M26.4472 50.26H46.9672V29.74H26.4472V50.26ZM43.0176 38.0256H38.6816V33.6896H43.0176V38.0256ZM30.396 33.6896H34.7344V41.9744H43.0176V46.3104H30.396V33.6896ZM60.3296 29.74C58.3004 29.74 56.3167 30.3417 54.6294 31.4691C52.9422 32.5965 51.6272 34.1989 50.8506 36.0737C50.074 37.9484 49.8709 40.0114 50.2667 42.0016C50.6626 43.9919 51.6398 45.82 53.0747 47.2549C54.5096 48.6898 56.3377 49.667 58.328 50.0628C60.3182 50.4587 62.3812 50.2556 64.2559 49.479C66.1307 48.7024 67.7331 47.3874 68.8605 45.7001C69.9879 44.0129 70.5896 42.0292 70.5896 40C70.5864 37.2798 69.5044 34.672 67.581 32.7486C65.6576 30.8251 63.0497 29.7432 60.3296 29.74ZM60.3296 46.3104C59.0815 46.3104 57.8615 45.9403 56.8237 45.2469C55.786 44.5535 54.9772 43.568 54.4996 42.4149C54.0219 41.2618 53.897 39.993 54.1405 38.7689C54.3839 37.5448 54.9849 36.4204 55.8675 35.5379C56.75 34.6553 57.8744 34.0543 59.0985 33.8108C60.3226 33.5674 61.5914 33.6923 62.7445 34.1699C63.8976 34.6476 64.8831 35.4564 65.5765 36.4941C66.2699 37.5319 66.64 38.7519 66.64 40C66.6375 41.6728 65.9718 43.2764 64.7889 44.4593C63.606 45.6422 62.0024 46.3079 60.3296 46.3104ZM107.305 29.74C105.276 29.7398 103.292 30.3414 101.604 31.4687C99.9171 32.596 98.6019 34.1983 97.8252 36.0731C97.0485 37.9479 96.8453 40.0108 97.2411 42.0011C97.6368 43.9914 98.614 45.8197 100.049 47.2546C101.484 48.6896 103.312 49.6668 105.302 50.0628C107.292 50.4587 109.355 50.2556 111.23 49.4791C113.105 48.7025 114.707 47.3875 115.835 45.7002C116.962 44.013 117.564 42.0293 117.564 40C117.561 37.28 116.479 34.6723 114.556 32.7489C112.632 30.8255 110.025 29.7434 107.305 29.74ZM107.305 46.3104C106.057 46.3105 104.837 45.9406 103.799 45.2473C102.761 44.554 101.952 43.5685 101.474 42.4154C100.996 41.2624 100.871 39.9935 101.115 38.7694C101.358 37.5452 101.959 36.4208 102.842 35.5381C103.724 34.6555 104.848 34.0545 106.073 33.8109C107.297 33.5673 108.566 33.6923 109.719 34.1699C110.872 34.6475 111.857 35.4563 112.551 36.494C113.244 37.5318 113.614 38.7519 113.614 40C113.612 41.6727 112.946 43.2762 111.764 44.459C110.581 45.6419 108.978 46.3076 107.305 46.3104ZM83.8168 29.74C81.7876 29.74 79.8039 30.3417 78.1166 31.4691C76.4294 32.5965 75.1144 34.1989 74.3378 36.0737C73.5612 37.9484 73.3581 40.0114 73.7539 42.0016C74.1498 43.9919 75.127 45.82 76.5619 47.2549C77.9968 48.6898 79.8249 49.667 81.8152 50.0628C83.8054 50.4587 85.8684 50.2556 87.7431 49.479C89.6179 48.7024 91.2203 47.3874 92.3477 45.7001C93.4751 44.0129 94.0768 42.0292 94.0768 40C94.0736 37.2798 92.9916 34.672 91.0682 32.7486C89.1448 30.8251 86.5369 29.7432 83.8168 29.74ZM83.8168 46.3104C82.654 46.311 81.5136 45.9902 80.5216 45.3836C79.5295 44.777 78.7244 43.908 78.195 42.8727C77.6657 41.8373 77.4327 40.6759 77.5218 39.5164C77.6109 38.357 78.0186 37.2448 78.7 36.3025C79.3813 35.3602 80.3098 34.6245 81.3828 34.1766C82.4559 33.7286 83.6319 33.5859 84.781 33.7642C85.9301 33.9424 87.0076 34.4347 87.8945 35.1867C88.7815 35.9387 89.4434 36.9212 89.8072 38.0256H83.8168V41.9744H89.8072C89.3905 43.2346 88.5876 44.3317 87.5124 45.11C86.4371 45.8883 85.1442 46.3083 83.8168 46.3104Z" fill="#9097AA"/>
</svg>
