<svg width="40" height="40" viewBox="0 0 40 40" fill="none" xmlns="http://www.w3.org/2000/svg">
<rect width="40" height="40" rx="20" fill="#F6F5FE"/>
<path d="M16 15V23C16 23.5304 16.2107 24.0391 16.5858 24.4142C16.9609 24.7893 17.4696 25 18 25H24M16 15V13C16 12.4696 16.2107 11.9609 16.5858 11.5858C16.9609 11.2107 17.4696 11 18 11H22.586C22.8512 11.0001 23.1055 11.1055 23.293 11.293L27.707 15.707C27.8946 15.8945 27.9999 16.1488 28 16.414V23C28 23.5304 27.7893 24.0391 27.4142 24.4142C27.0391 24.7893 26.5304 25 26 25H24M16 15H14C13.4696 15 12.9609 15.2107 12.5858 15.5858C12.2107 15.9609 12 16.4696 12 17V27C12 27.5304 12.2107 28.0391 12.5858 28.4142C12.9609 28.7893 13.4696 29 14 29H22C22.5304 29 23.0391 28.7893 23.4142 28.4142C23.7893 28.0391 24 27.5304 24 27V25M16 15V23C16 24.1046 16.8954 25 18 25H24" stroke="black" stroke-width="1.5" stroke-linecap="round" stroke-linejoin="round"/>
</svg>
