<svg width="220" height="194" viewBox="0 0 220 194" fill="none" xmlns="http://www.w3.org/2000/svg">
<path d="M220 85.8651C220 73.1371 209.645 62.7821 196.917 62.7821C184.189 62.7821 173.834 73.1371 173.834 85.8651C173.834 91.6551 175.982 96.9491 179.515 101.005L155.653 122.895L125.22 60.0021L143.007 39.1101L110.125 0.487061L77.244 39.1111L94.239 59.0731L64.023 122.537L40.496 100.993C44.024 96.9381 46.167 91.6491 46.167 85.8651C46.167 73.1371 35.812 62.7821 23.084 62.7821C10.355 62.7821 0 73.1371 0 85.8651C0 97.6591 8.895 107.41 20.328 108.778L27.401 193.513H192.6L199.673 108.778C211.105 107.41 220 97.6591 220 85.8651Z" fill="white"/>
</svg>
