<svg width="40" height="40" viewBox="0 0 40 40" fill="none" xmlns="http://www.w3.org/2000/svg">
<rect width="40" height="40" rx="20" fill="#F6F5FE"/>
<path d="M16.4375 12.6875H16.25C16.3531 12.6875 16.4375 12.6031 16.4375 12.5V12.6875H23.5625V12.5C23.5625 12.6031 23.6469 12.6875 23.75 12.6875H23.5625V14.375H25.25V12.5C25.25 11.6727 24.5773 11 23.75 11H16.25C15.4227 11 14.75 11.6727 14.75 12.5V14.375H16.4375V12.6875ZM28.25 14.375H11.75C11.3352 14.375 11 14.7102 11 15.125V15.875C11 15.9781 11.0844 16.0625 11.1875 16.0625H12.6031L13.182 28.3203C13.2195 29.1195 13.8805 29.75 14.6797 29.75H25.3203C26.1219 29.75 26.7805 29.1219 26.818 28.3203L27.3969 16.0625H28.8125C28.9156 16.0625 29 15.9781 29 15.875V15.125C29 14.7102 28.6648 14.375 28.25 14.375ZM25.1398 28.0625H14.8602L14.293 16.0625H25.707L25.1398 28.0625Z" fill="black"/>
</svg>
