<svg width="40" height="40" viewBox="0 0 40 40" fill="none" xmlns="http://www.w3.org/2000/svg">
<rect width="40" height="40" rx="20" fill="#F6F5FE"/>
<path d="M30.0317 13.3351L26.1184 9.40172C25.8598 9.14443 25.5098 9 25.145 9C24.7802 9 24.4303 9.14443 24.1717 9.40172L10.2984 23.2551L9.0317 28.7217C8.988 28.9216 8.9895 29.1286 9.03608 29.3278C9.08266 29.527 9.17315 29.7133 9.30094 29.873C9.42873 30.0327 9.59058 30.1619 9.77468 30.2511C9.95878 30.3402 10.1605 30.3872 10.365 30.3884C10.4603 30.398 10.5564 30.398 10.6517 30.3884L16.1784 29.1217L30.0317 15.2817C30.289 15.0231 30.4334 14.6732 30.4334 14.3084C30.4334 13.9436 30.289 13.5937 30.0317 13.3351V13.3351ZM15.5117 27.9217L10.3317 29.0084L11.5117 23.9284L21.8917 13.5884L25.8917 17.5884L15.5117 27.9217ZM26.785 16.6217L22.785 12.6217L25.105 10.3151L29.0384 14.3151L26.785 16.6217Z" fill="black"/>
</svg>
