<svg width="500" height="356" viewBox="0 0 500 356" fill="none" xmlns="http://www.w3.org/2000/svg">
<path d="M400.717 322.752V76.715C400.717 74.9394 399.277 73.5 397.502 73.5H70.2689C68.4933 73.5 67.0539 74.9394 67.0539 76.715V322.752C67.0539 326.304 69.9327 329.182 73.4839 329.182H394.287C397.838 329.182 400.717 326.304 400.717 322.752Z" fill="#FAFAFA"/>
<rect x="162.729" y="146.08" width="49.064" height="6.59825" rx="3.29913" fill="#E1E7E9"/>
<rect x="162.729" y="160.927" width="170.088" height="6.59825" rx="3.29913" fill="#E1E7E9"/>
<rect x="282.118" y="187.318" width="50.6994" height="36.2904" fill="#FAFCFD"/>
<path d="M313.748 200.516L298.472 217.011H327.911L313.748 200.516Z" fill="#C4C4C4"/>
<ellipse cx="293.566" cy="199.693" rx="3.27093" ry="3.29913" fill="#C4C4C4"/>
<path d="M299.237 206.289L289.477 217.011H308.285L299.237 206.289Z" fill="#DEDEDE"/>
<rect x="228.147" y="187.318" width="50.6994" height="36.2904" fill="#FAFCFD"/>
<path d="M259.778 200.516L244.502 217.011H273.94L259.778 200.516Z" fill="#C4C4C4"/>
<ellipse cx="239.595" cy="199.693" rx="3.27093" ry="3.29913" fill="#C4C4C4"/>
<path d="M245.267 206.289L235.507 217.011H254.315L245.267 206.289Z" fill="#DEDEDE"/>
<rect x="174.177" y="187.318" width="50.6994" height="36.2904" fill="#FAFCFD"/>
<path d="M205.808 200.516L190.532 217.011H219.97L205.808 200.516Z" fill="#C4C4C4"/>
<ellipse cx="185.625" cy="199.693" rx="3.27093" ry="3.29913" fill="#C4C4C4"/>
<path d="M191.296 206.289L181.537 217.011H200.344L191.296 206.289Z" fill="#DEDEDE"/>
<path d="M67.0539 117.213V79.93C67.0539 76.3788 69.9327 73.5 73.4839 73.5H394.259C397.81 73.5 400.689 76.3788 400.689 79.93V117.213H67.0539Z" fill="#5046C2"/>
<rect x="125.931" y="89.9971" width="11.4483" height="11.5469" rx="5.72413" fill="white"/>
<rect x="141.468" y="85.8701" width="48.6349" height="6.26223" rx="3.13112" fill="#978DFF"/>
<rect x="141.468" y="98.3945" width="167.635" height="6.26223" rx="3.13112" fill="white"/>
<path d="M100.581 329.183V117.214H67.054V322.753C67.054 326.304 69.9327 329.183 73.4839 329.183H100.581Z" fill="#F0F0F2"/>
<rect x="162.729" y="279.696" width="49.064" height="6.59825" rx="3.29913" fill="#E1E7E9"/>
<rect x="162.729" y="294.542" width="170.088" height="6.59825" rx="3.29913" fill="#E1E7E9"/>
<rect x="162.729" y="239.28" width="49.064" height="6.59825" rx="3.29913" fill="#E1E7E9"/>
<rect x="162.729" y="254.127" width="170.088" height="6.59825" rx="3.29913" fill="#E1E7E9"/>
<path d="M34.9216 162.84L34.598 155.977" stroke="#ACACAD" stroke-width="2.41123" stroke-miterlimit="10" stroke-linecap="round"/>
<path d="M27.3197 161.419L21.2609 157.227" stroke="#ACACAD" stroke-width="2.41123" stroke-miterlimit="10" stroke-linecap="round"/>
<path d="M27.956 171.079L21.9758 170.375" stroke="#ACACAD" stroke-width="2.41123" stroke-miterlimit="10" stroke-linecap="round"/>
<path d="M335.27 133.071L339.687 112.773C340.442 109.303 343.865 107.112 347.332 107.88L493.722 140.286C497.189 141.053 499.388 144.489 498.633 147.958L494.216 168.257L335.27 133.071Z" fill="#6558F5"/>
<rect width="1.76141" height="11.7969" rx="0.880705" transform="matrix(0.971439 0.237623 -0.233764 0.972213 352.747 116.39)" fill="white"/>
<rect width="1.77516" height="11.7055" rx="0.887579" transform="matrix(0.256712 -0.966319 0.965526 0.260942 346.718 121.404)" fill="white"/>
<rect width="23.7309" height="3.89702" rx="1.94851" transform="matrix(0.976364 0.216135 -0.212624 0.977134 374.868 121.86)" fill="white"/>
<rect width="81.7958" height="3.89702" rx="1.94851" transform="matrix(0.976364 0.216135 -0.212624 0.977134 373.211 129.478)" fill="white"/>
<path d="M398.419 328.876H403.421L402.855 337.364H399.102L398.419 328.876Z" fill="#FFD2AB"/>
<path d="M441.163 321.869L445.591 319.596L448.785 326.194L445.294 327.965L441.163 321.869Z" fill="#FFD2AB"/>
<path d="M458.557 162.373C459.078 160.526 458.35 160.14 458.764 158.867C459.178 157.594 459.977 156.076 460.608 156.722C461.238 157.369 460.241 158.508 460.876 160.38C461.05 160.89 462.856 161.217 462.856 161.217L465.331 161.815C464.748 162.594 464.012 163.242 463.169 163.72C461.808 164.469 462.265 164.651 461.251 165.935C459.005 168.783 457.35 166.223 457.783 164.681C458.217 163.14 458.036 164.218 458.557 162.373Z" fill="#FFD2AB"/>
<path d="M367.586 140.97C367.806 140.167 367.806 139.319 367.585 138.517C367.198 137.395 366.502 136.014 366.028 136.473C365.554 136.931 366.747 139.364 365.521 140.099C365.035 140.39 364.387 140.178 363.492 139.991C362.424 139.769 361.113 139.455 361.113 139.455C361.286 140.298 361.629 141.096 362.12 141.8C363.03 143.261 363.713 143.057 364.772 145.259C365.831 147.461 368.77 146.035 368.089 144.593C367.66 143.437 367.489 142.2 367.586 140.97V140.97Z" fill="#FFD2AB"/>
<path d="M395.235 232.228L416.324 235.751L407.007 279.608L403.846 329.767C403.016 330.283 402.069 330.577 401.095 330.619C400.024 330.549 398.979 330.259 398.023 329.767C398.023 329.767 395.912 299.826 395.235 281.69C394.557 263.553 395.235 232.228 395.235 232.228Z" fill="#0F2438"/>
<path d="M406.762 238.738L425.347 233.045C425.347 233.045 428.364 269.427 429.912 275.888C431.46 282.348 447.382 321.113 447.382 321.113C446.806 321.932 446.141 322.683 445.401 323.354C444.28 324.332 441.752 324.246 441.752 324.246C441.752 324.246 420.382 285.81 419.043 283.914C417.704 282.018 411.621 265.933 409.53 256.896C408.202 250.913 407.278 244.847 406.762 238.738V238.738Z" fill="#173450"/>
<path d="M395.576 191.552C398.883 193.834 418.969 195.45 424.09 194.632C429.212 193.815 435.574 189.576 442.143 184.256C448.712 178.936 457.846 163.117 457.846 163.117C458.28 163.813 458.903 164.367 459.641 164.714C460.383 165.047 461.181 165.237 461.992 165.276C461.992 165.276 453.772 184.586 445.833 192.681C437.893 200.776 428.555 204.841 427.586 208.001C426.618 211.162 427.685 227.369 425.061 233.987C422.437 240.606 397.382 242.821 395.576 236.535C393.771 230.25 392.452 213.24 390.378 208.005C388.305 202.77 382.299 194.843 377.568 188.229C372.836 181.616 363.818 145.128 363.818 145.128C364.644 145.369 365.52 145.369 366.346 145.128C367.072 144.787 367.703 144.269 368.183 143.622C368.183 143.622 376.829 168.638 382.715 177.614C388.601 186.59 392.269 189.278 395.576 191.552Z" fill="#6558F5"/>
<path d="M393.012 207.087C394.571 212.229 395.667 217.502 396.289 222.842C397.386 232.022 397.537 236.025 398.896 237.333C400.256 238.641 401.583 240.466 407.656 240.061C413.728 239.656 414.733 239.409 416.705 238.966C418.228 238.561 419.711 238.016 421.135 237.336C421.135 237.336 423.159 236.59 424.475 232.46C425.121 230.429 425.155 228.141 425.562 223.55C425.969 218.959 426.053 208.727 426.89 206.618C427.375 205.397 432.874 202.15 438.041 198.143C440.07 196.554 442.264 194.915 444.045 193.232C445.26 192.083 446.552 190.897 447.314 190.113C451.467 185.836 461.992 165.274 461.992 165.274C461.992 165.274 453.772 184.584 445.833 192.679C437.893 200.774 428.555 204.838 427.586 207.999C426.618 211.16 427.685 227.367 425.061 233.985C422.437 240.603 397.383 242.817 395.577 236.53C393.772 230.243 392.453 213.234 390.379 207.999C388.306 202.764 382.3 194.838 377.569 188.224C372.837 181.61 363.818 145.128 363.818 145.128C365.609 148.66 367.118 152.329 368.332 156.102C371.663 166.533 375.708 181.636 379.458 187.356C385.343 196.327 390.768 201.365 393.012 207.087Z" fill="#5B50DE"/>
<path d="M398.82 334.677C399.068 334.908 399.363 335.083 399.684 335.191C400.004 335.299 400.344 335.337 400.68 335.303C401.668 335.235 402.627 334.938 403.481 334.434C403.481 334.434 405.295 338.976 403.481 339.649C401.667 340.322 390.322 342.136 389.67 339.646C389.017 337.155 398.82 334.677 398.82 334.677Z" fill="#FBC103"/>
<path d="M444.282 326.697C444.603 326.807 444.943 326.846 445.28 326.813C445.617 326.78 445.943 326.675 446.237 326.505C447.112 326.038 447.867 325.372 448.445 324.561C448.445 324.561 451.934 327.967 450.548 329.326C449.162 330.685 439.524 336.994 437.927 334.994C436.329 332.994 444.282 326.697 444.282 326.697Z" fill="#FBC103"/>
<path d="M405.032 187.789L412.847 185.693C412.847 185.693 412.41 190.079 412.483 191.561C412.578 192.609 412.838 193.636 413.252 194.603C413.252 194.603 413.105 195.176 411.348 195.784C410.06 196.181 408.683 196.181 407.395 195.784C406.934 195.618 406.511 195.359 406.152 195.022C405.794 194.686 405.506 194.28 405.308 193.828C405.308 193.828 405.347 192.218 405.032 187.789Z" fill="#FFD2AB"/>
<path d="M397.851 178.949C397.566 178.566 395.613 181.133 396.434 182.377C397.254 183.621 398.076 182.377 398.076 182.377C398.133 181.229 398.057 180.079 397.851 178.949V178.949Z" fill="#F1B785"/>
<path d="M404.91 187.31L412.847 185.694C412.847 185.694 412.784 183.872 413.084 186.366C413.192 187.254 411.91 188.566 409.988 189.843C408.894 190.611 407.725 191.264 406.5 191.792C405.341 192.141 405.252 191.465 405.252 191.465C405.252 191.465 405.155 189.379 405.104 188.843C405.097 188.326 405.032 187.812 404.91 187.31V187.31Z" fill="#F1B785"/>
<path d="M407.766 167.166C410.545 167.177 413.206 168.3 415.163 170.289C417.121 172.278 418.214 174.97 418.204 177.773C418.204 183.632 411.4 189.942 405.727 189.59C400.054 189.238 396.939 183.632 396.939 177.773C397.017 174.93 398.192 172.231 400.215 170.249C402.237 168.268 404.947 167.162 407.766 167.166V167.166Z" fill="#FFD2AB"/>
<path d="M399.178 166.989C399.178 166.989 395.032 162.259 392.042 168.155C389.051 174.051 394.556 175.352 396.458 175.559C399.172 175.681 399.539 175.628 402.194 175.051C404.312 174.534 407.971 175.188 407.699 176.422C407.428 177.657 407.36 179.919 408.311 180.947C409.262 181.975 410.622 179.85 410.622 179.85C410.719 179.58 410.911 179.355 411.161 179.216C411.411 179.077 411.703 179.035 411.981 179.096C412.932 179.37 412.729 181.769 411.981 182.386C410.962 183.321 410.291 184.579 410.079 185.951C409.977 186.954 409.977 187.965 412.43 188.79C412.634 189.749 412.254 189.379 414.224 188.145C416.194 186.911 417.427 182.555 417.427 182.555C417.427 182.555 419.892 180.231 419.934 175.058C419.976 169.885 414.224 167.722 414.224 167.722C414.224 167.722 412.886 164.627 407.156 163.61C401.426 162.593 399.178 166.989 399.178 166.989Z" fill="#0F2437"/>
<g filter="url(#filter0_d_41_287)">
<rect x="34.3447" y="170" width="94.0393" height="42.0639" rx="3.21498" fill="#5046C2"/>
<rect x="34.3447" y="217.836" width="94.0393" height="112.17" rx="3.21498" fill="#FAFAFA"/>
<rect x="45.793" y="182.371" width="23.7142" height="6.59825" rx="3.21498" fill="#978DFF"/>
<rect x="45.793" y="226.909" width="23.7142" height="6.59825" rx="3.21498" fill="#E1E7E9"/>
<rect x="45.793" y="259.902" width="23.7142" height="6.59825" rx="3.21498" fill="#E1E7E9"/>
<rect x="45.793" y="292.892" width="23.7142" height="6.59825" rx="3.21498" fill="#E1E7E9"/>
<rect x="45.793" y="197.217" width="37.6157" height="6.59825" rx="3.21498" fill="white"/>
<rect x="45.793" y="241.757" width="37.6157" height="6.59825" fill="#E1E7E9"/>
<rect x="45.793" y="274.746" width="37.6157" height="6.59825" fill="#E1E7E9"/>
<rect x="45.793" y="307.738" width="37.6157" height="6.59825" fill="#E1E7E9"/>
</g>
<path d="M66.9955 16.1268L61.3827 13.5851C61.0157 13.4189 60.5842 13.5598 60.3856 13.9108C60.1871 14.2618 60.2862 14.7081 60.6148 14.9423L65.5657 18.471C69.3064 21.1371 70.6716 26.0799 68.8296 30.2881L66.5523 35.491C66.387 35.8688 66.5371 36.3148 66.8943 36.5204C67.2514 36.726 67.7085 36.6295 67.9469 36.2937L71.2297 31.6696C73.8849 27.9295 78.7985 26.6008 82.9771 28.4929L88.5076 30.9973C88.8746 31.1635 89.3061 31.0226 89.5047 30.6716C89.7032 30.3207 89.6041 29.8743 89.2755 29.6401L84.2509 26.0589C80.5435 23.4165 79.1653 18.5332 80.9439 14.3418L82.6486 10.3245C82.8083 9.94802 82.6615 9.50978 82.3074 9.30594L82.2845 9.29278C81.9304 9.08893 81.4816 9.18437 81.2415 9.51459L78.6795 13.0384C76.0063 16.7149 71.1369 18.0021 66.9955 16.1268Z" fill="#48A0E0"/>
<path d="M400.021 44.694L401.004 44.8016C401.29 44.833 401.507 45.0748 401.507 45.3628C401.507 45.6508 401.29 45.8927 401.004 45.924L400.101 46.0229C395.54 46.5222 391.963 50.1648 391.546 54.7334L391.38 56.5432C391.357 56.8039 391.138 57.0035 390.876 57.0035C390.614 57.0035 390.396 56.8039 390.372 56.5432L390.207 54.7334C389.789 50.1647 386.212 46.5222 381.652 46.0229L380.749 45.924C380.462 45.8927 380.246 45.6508 380.246 45.3628C380.246 45.0748 380.462 44.833 380.749 44.8016L381.732 44.694C386.256 44.1986 389.818 40.608 390.277 36.08L390.367 35.1942C390.394 34.9331 390.614 34.7344 390.876 34.7344C391.139 34.7344 391.359 34.9331 391.385 35.1942L391.475 36.08C391.934 40.608 395.497 44.1986 400.021 44.694Z" fill="#5BC77B"/>
<path d="M201.312 38.9196L202.295 39.0272C202.581 39.0585 202.798 39.3004 202.798 39.5884C202.798 39.8764 202.581 40.1183 202.295 40.1496L201.392 40.2485C196.831 40.7478 193.254 44.3903 192.837 48.9589L192.671 50.7688C192.648 51.0295 192.429 51.2291 192.167 51.2291C191.905 51.2291 191.687 51.0295 191.663 50.7688L191.498 48.9589C191.08 44.3903 187.503 40.7478 182.943 40.2485L182.04 40.1496C181.753 40.1183 181.537 39.8764 181.537 39.5884C181.537 39.3004 181.753 39.0585 182.04 39.0272L183.023 38.9196C187.547 38.4242 191.109 34.8336 191.568 30.3056L191.658 29.4198C191.685 29.1587 191.905 28.96 192.167 28.96C192.43 28.96 192.65 29.1587 192.676 29.4198L192.766 30.3056C193.225 34.8336 196.788 38.4242 201.312 38.9196Z" fill="#C75B61"/>
<path d="M17.0659 48.4544C15.1986 51.7547 11.0387 52.8952 7.77923 51.0191C4.51976 49.1429 3.37728 44.9504 5.24461 41.6501C7.11194 38.3497 11.2719 37.2092 14.5313 39.0854C17.7908 40.9615 18.9333 45.154 17.0659 48.4544Z" stroke="#AB79DF" stroke-width="2.74965"/>
<ellipse rx="5.31526" ry="5.36108" transform="matrix(-1 0 0 1 427.265 12.0544)" fill="#F1AE54"/>
<ellipse rx="5.31526" ry="5.36108" transform="matrix(-1 0 0 1 273.532 28.5505)" fill="#5F87AC"/>
<path d="M50.0642 109.683C48.1968 112.983 44.0369 114.124 40.7775 112.248C37.518 110.371 36.3755 106.179 38.2428 102.879C40.1102 99.5782 44.2701 98.4377 47.5296 100.314C50.789 102.19 51.9315 106.383 50.0642 109.683Z" stroke="#F2BA69" stroke-width="2.74965"/>
<path d="M440.553 74.3232H436.874V83.2584H427.674V86.8324H436.874V95.7676H440.553V86.8324H449.753V83.2584H440.553V74.3232Z" fill="#4CA4E2"/>
<defs>
<filter id="filter0_d_41_287" x="15.0549" y="157.14" width="132.619" height="198.586" filterUnits="userSpaceOnUse" color-interpolation-filters="sRGB">
<feFlood flood-opacity="0" result="BackgroundImageFix"/>
<feColorMatrix in="SourceAlpha" type="matrix" values="0 0 0 0 0 0 0 0 0 0 0 0 0 0 0 0 0 0 127 0" result="hardAlpha"/>
<feOffset dy="6.42996"/>
<feGaussianBlur stdDeviation="9.64493"/>
<feComposite in2="hardAlpha" operator="out"/>
<feColorMatrix type="matrix" values="0 0 0 0 0 0 0 0 0 0 0 0 0 0 0 0 0 0 0.12 0"/>
<feBlend mode="normal" in2="BackgroundImageFix" result="effect1_dropShadow_41_287"/>
<feBlend mode="normal" in="SourceGraphic" in2="effect1_dropShadow_41_287" result="shape"/>
</filter>
</defs>
</svg>
