<svg width="199" height="196" viewBox="0 0 199 196" fill="none" xmlns="http://www.w3.org/2000/svg">
<path d="M97.905 51.1423C97.905 54.3606 95.91 57.6823 93.453 57.6823C90.995 57.6823 89 54.3675 89 51.1423C89 47.9172 90.993 46 93.453 46C95.912 46 97.905 47.9172 97.905 51.1423Z" fill="#DEDBFF"/>
<path d="M91.598 70.32H91.368C91.368 69.219 91.945 68.667 92.503 68.134C93.062 67.601 93.57 67.113 93.57 66.107C93.57 65.1 93.066 64.606 92.517 64.075C91.968 63.5435 91.381 62.9895 91.381 61.8884C91.381 60.7873 91.958 60.2425 92.517 59.7069C93.076 59.1712 93.584 58.6862 93.584 57.6816H93.814C93.814 58.7805 93.237 59.3322 92.678 59.8678C92.119 60.4034 91.598 60.8884 91.598 61.893C91.598 62.8975 92.117 63.3964 92.666 63.9205C93.216 64.445 93.802 65.006 93.802 66.107C93.802 67.208 93.225 67.759 92.666 68.293C92.108 68.826 91.598 69.313 91.598 70.32Z" fill="#799EB0"/>
<path d="M93.453 57.3516L92.678 58.9492H94.225L93.453 57.3516Z" fill="#407BFF"/>
<path d="M93.713 57.9878H93.191C93.11 57.9872 93.032 57.9548 92.975 57.8976C92.918 57.8404 92.886 57.763 92.885 57.6821C92.885 57.6008 92.917 57.5228 92.974 57.4651C93.032 57.4074 93.109 57.3746 93.191 57.374H93.713C93.753 57.374 93.793 57.382 93.83 57.3975C93.867 57.413 93.901 57.4357 93.93 57.4644C93.958 57.493 93.98 57.527 93.996 57.5644C94.011 57.6017 94.019 57.6417 94.018 57.6821C94.018 57.7631 93.986 57.8409 93.929 57.8982C93.871 57.9556 93.794 57.9878 93.713 57.9878Z" fill="#455A64"/>
<path d="M45.927 76.032C46.021 76.125 64.381 69.848 64.381 69.848L57.305 53.7266L40.979 59.9604L49.968 65.099L45.927 76.032Z" fill="#799EB0"/>
<path d="M54.54 58.5793V36.6316C54.54 36.6316 79.866 32.0209 98.115 32.296C116.364 32.5711 135.155 35.5477 135.155 35.5477V56.6206C135.155 56.6206 77.958 51.5367 54.54 58.5793Z" fill="#799EB0"/>
<path d="M54.408 58.6018L64.359 69.942V56.6211C64.359 56.6211 56.039 57.6115 54.408 58.6018Z" fill="#5A7685"/>
<path d="M54.54 36.626C54.623 36.626 54.656 41.5778 54.623 47.6301C54.59 53.6823 54.491 58.6342 54.413 58.6342C54.336 58.6342 54.297 53.7153 54.33 47.6301C54.363 41.5448 54.457 36.626 54.54 36.626Z" fill="#5A7685"/>
<path d="M143.724 74.348C143.63 74.441 125.27 68.164 125.27 68.164L132.33 52.0371L148.672 58.2599L139.677 63.3988L143.724 74.348Z" fill="#799EB0"/>
<path d="M135.255 56.9183L125.303 68.258V55.9004C128.64 56.0141 131.965 56.3541 135.255 56.9183Z" fill="#5A7685"/>
<path d="M135.144 35.5479C135.222 35.5479 135.31 40.3291 135.338 46.2328C135.365 52.1365 135.338 56.9178 135.244 56.9178C135.15 56.9178 135.078 52.1365 135.05 46.2328C135.022 40.3291 135.061 35.5479 135.144 35.5479Z" fill="#5A7685"/>
<path d="M68.82 46.255C68.768 45.6231 68.904 44.99 69.211 44.4347C69.519 43.8794 69.984 43.4267 70.549 43.1331C71.113 42.8395 71.752 42.7181 72.386 42.7841C73.019 42.8501 73.619 43.1005 74.111 43.504L73.337 44.4283C73.128 44.2391 72.881 44.098 72.611 44.0153C72.342 43.9325 72.057 43.9101 71.778 43.9496C71.282 44.0182 70.834 44.2799 70.533 44.6772C70.231 45.0744 70.1 45.5747 70.169 46.0679C70.238 46.5611 70.501 47.0069 70.9 47.3072C71.299 47.6074 71.802 47.7376 72.297 47.669C72.578 47.6322 72.848 47.533 73.085 47.3788C73.322 47.2245 73.522 47.019 73.668 46.7777L74.641 47.4544C74.281 47.9764 73.774 48.3809 73.183 48.6173C72.593 48.8537 71.946 48.9115 71.322 48.7834C70.699 48.6554 70.128 48.3472 69.68 47.8974C69.232 47.4477 68.927 46.8763 68.803 46.255H68.82Z" fill="white"/>
<path d="M74.8509 45.4298C74.7489 44.7945 74.8399 44.1432 75.1129 43.5601C75.3859 42.9769 75.8289 42.4889 76.3839 42.1591C76.9389 41.8294 77.5809 41.6731 78.2269 41.7105C78.8719 41.7479 79.4909 41.9773 80.0039 42.369C80.5169 42.7607 80.8999 43.2966 81.1039 43.9074C81.3069 44.5182 81.3209 45.1756 81.1449 45.7947C80.9689 46.4137 80.6099 46.9658 80.1139 47.3795C79.6189 47.7931 79.0109 48.0493 78.3679 48.1148C77.9579 48.1798 77.5389 48.1611 77.1369 48.0597C76.7349 47.9583 76.3579 47.7764 76.0289 47.5251C75.6999 47.2738 75.4259 46.9584 75.2229 46.5982C75.0209 46.2379 74.8939 45.8404 74.8509 45.4298ZM79.8879 44.9126C79.8429 44.5556 79.6929 44.2197 79.4579 43.9467C79.2219 43.6737 78.9109 43.4758 78.5629 43.3777C78.2159 43.2795 77.8469 43.2854 77.5019 43.3947C77.1579 43.5039 76.8529 43.7117 76.6269 43.992C76.3999 44.2724 76.2609 44.6129 76.2279 44.9712C76.1949 45.3294 76.2679 45.6895 76.4389 46.0066C76.6099 46.3236 76.8709 46.5835 77.1889 46.754C77.5079 46.9244 77.8689 46.9977 78.2289 46.9648C78.4779 46.9486 78.7199 46.8812 78.9399 46.767C79.1609 46.6528 79.3559 46.4942 79.5109 46.3012C79.6669 46.1083 79.7809 45.8853 79.8459 45.6462C79.9109 45.4072 79.9249 45.1574 79.8879 44.9126Z" fill="white"/>
<path d="M87.882 47.2616L87.644 43.7513L86.102 46.7555L85.494 46.794L83.586 44.087L83.813 47.5202L82.536 47.6028L82.182 41.7541L83.288 41.6826L85.72 45.1764L87.65 41.4075L88.755 41.3359L89.153 47.1791L87.882 47.2616Z" fill="white"/>
<path d="M95.4939 43.2564C95.5279 44.5659 94.5659 45.4022 92.9959 45.4572L91.8069 45.4902L91.8569 47.1078L90.4909 47.1463L90.325 41.2536L92.8739 41.1821C94.4499 41.1601 95.4499 41.9469 95.4939 43.2564ZM94.1119 43.2949C94.1119 42.6511 93.6649 42.288 92.8299 42.31L91.7239 42.343L91.7849 44.3788L92.8909 44.3458C93.7199 44.3238 94.1289 43.9331 94.1119 43.2949Z" fill="white"/>
<path d="M96.556 41.127H97.916V45.8807H100.868V46.9811H96.556V41.127Z" fill="white"/>
<path d="M106.148 46.0515V47.1519L101.587 47.0198L101.758 41.1602L106.181 41.2922L106.148 42.3926L103.052 42.2991L103.019 43.5756L105.75 43.6526L105.716 44.709L102.985 44.6264L102.947 45.9855L106.148 46.0515Z" fill="white"/>
<path d="M108.669 42.5181L106.789 42.408L106.855 41.3076L111.975 41.6157L111.908 42.7161L110.029 42.6006L109.741 47.3489L108.381 47.2663L108.669 42.5181Z" fill="white"/>
<path d="M116.934 46.855L116.834 47.9554L112.29 47.5372L112.843 41.7051L117.265 42.1122L117.166 43.2126L114.081 42.9045L113.965 44.1755L116.685 44.4231L116.591 45.474L113.865 45.2264L113.744 46.5744L116.934 46.855Z" fill="white"/>
<path d="M118.636 42.2383L121.284 42.5904C123.192 42.8435 124.347 44.1585 124.115 45.8916C123.883 47.6248 122.412 48.6427 120.505 48.3676L117.857 48.0154L118.636 42.2383ZM120.588 47.2837C120.828 47.3221 121.074 47.3122 121.311 47.2544C121.548 47.1967 121.77 47.0924 121.966 46.9476C122.161 46.8028 122.326 46.6205 122.449 46.4114C122.573 46.2024 122.653 45.9708 122.685 45.7304C122.717 45.4899 122.701 45.2455 122.636 45.0116C122.572 44.7776 122.461 44.5589 122.311 44.3683C122.16 44.1776 121.972 44.019 121.759 43.9017C121.546 43.7844 121.311 43.7108 121.069 43.6853L119.836 43.5203L119.355 47.1186L120.588 47.2837Z" fill="white"/>
<path d="M144 37.0254L144.786 38L147 37.0254L146.352 36L144 37.0254Z" fill="#455A64"/>
<path d="M137 18.5C137 18.9945 136.853 19.4778 136.579 19.8889C136.304 20.3 135.914 20.6205 135.457 20.8097C135 20.9989 134.497 21.0484 134.012 20.952C133.527 20.8555 133.082 20.6174 132.732 20.2678C132.383 19.9181 132.144 19.4727 132.048 18.9877C131.952 18.5028 132.001 18.0001 132.19 17.5433C132.38 17.0865 132.7 16.696 133.111 16.4213C133.522 16.1466 134.006 16 134.5 16C135.163 16.0017 135.797 16.2657 136.266 16.7341C136.734 17.2026 136.998 17.8375 137 18.5Z" fill="#FF725E"/>
<path d="M43 30.0001C43 30.1985 42.941 30.3923 42.83 30.5571C42.72 30.7218 42.563 30.8499 42.379 30.9252C42.196 31.0005 41.994 31.0195 41.8 30.9798C41.605 30.9401 41.427 30.8434 41.288 30.7022C41.149 30.561 41.055 30.3815 41.018 30.1867C40.981 29.9918 41.002 29.7903 41.08 29.6078C41.158 29.4254 41.288 29.2701 41.454 29.1619C41.621 29.0537 41.815 28.9974 42.014 29.0001C42.277 29.0037 42.527 29.1106 42.712 29.2978C42.897 29.4849 43 29.7372 43 30.0001Z" fill="#FF725E"/>
<path d="M83 63L82 64.722L84.192 68L85 66.273L83 63Z" fill="#455A64"/>
<path d="M65.249 16.6211L70.86 22.3157L78.76 19.3446L79.075 21.2978L75.653 28.2689L78.81 33.4739L78.545 35.0309L70.899 33.749L66.377 38.6843L65.315 37.8865L64.381 31.6087L57.249 27.9113L56.934 26.4753L64.115 24.522L65.249 16.6211Z" fill="#EDCB54"/>
<path d="M65.249 15.0195L70.86 20.7197L78.76 19.3441L75.051 26.4198L78.81 33.4734L70.899 32.1529L65.315 37.886L64.138 29.9906L56.934 26.4748L64.115 22.9205L65.249 15.0195Z" fill="#FFDB5A"/>
<path d="M123.435 16.6211L117.818 22.3157L109.918 19.3446L109.603 21.2978L113.025 28.2689L109.868 33.4739L110.134 35.0309L117.779 33.749L122.301 38.6843L123.363 37.8865L124.297 31.6087L131.429 27.9113L131.744 26.4753L124.563 24.522L123.435 16.6211Z" fill="#EDCB54"/>
<path d="M123.435 15.0195L117.818 20.7197L109.918 19.3441L113.627 26.4198L109.868 33.4734L117.779 32.1529L123.363 37.886L124.54 29.9906L131.744 26.4748L124.563 22.9205L123.435 15.0195Z" fill="#FFDB5A"/>
<path d="M94.157 6.62305L98.8279 15.7069L109.603 15.0742L109.238 17.5721L102.394 24.7853L104.246 32.3286L103.334 34.1278L94.4939 29.6656L87.0909 33.9792L86.1019 32.5982L87.3619 24.5817L80.0759 17.3685L80.2419 15.5034L89.7509 15.839L94.157 6.62305Z" fill="#EDCB54"/>
<path d="M94.765 4.67578L99.4359 13.7542L109.603 15.0747L102.366 22.3043L104.246 32.3291L95.1069 27.7184L86.1019 32.5987L87.6879 22.5189L80.2419 15.5038L90.364 13.8862L94.765 4.67578Z" fill="#FFDB5A"/>
<path d="M198.322 106.23C198.322 108.883 196.677 111.605 194.662 111.605C192.647 111.605 191 108.883 191 106.23C191 103.576 192.645 102 194.662 102C196.68 102 198.322 103.576 198.322 106.23Z" fill="#407BFF"/>
<path d="M194.662 111.334L194.026 112.65H195.298L194.662 111.334Z" fill="#407BFF"/>
<path opacity="0.7" d="M198.322 106.23C198.322 108.883 196.677 111.605 194.662 111.605C192.647 111.605 191 108.883 191 106.23C191 103.576 192.645 102 194.662 102C196.68 102 198.322 103.576 198.322 106.23Z" fill="white"/>
<path d="M196.565 122H196.384C196.384 121.178 195.956 120.767 195.504 120.333C195.052 119.9 194.569 119.443 194.569 118.535C194.569 117.628 195.046 117.165 195.504 116.737C195.962 116.309 196.384 115.898 196.384 115.07C196.384 114.243 195.956 113.837 195.504 113.404C195.052 112.971 194.569 112.513 194.569 111.605H194.753C194.753 112.428 195.178 112.842 195.63 113.275C196.082 113.708 196.565 114.166 196.565 115.07C196.565 115.975 196.09 116.441 195.63 116.869C195.169 117.296 194.753 117.707 194.753 118.535C194.753 119.363 195.178 119.772 195.63 120.202C196.082 120.632 196.565 121.096 196.565 122Z" fill="#799EB0"/>
<path opacity="0.7" d="M194.662 111.334L194.026 112.65H195.298L194.662 111.334Z" fill="white"/>
<path d="M194.876 111.858H194.446C194.379 111.858 194.315 111.832 194.267 111.784C194.22 111.737 194.194 111.673 194.194 111.606C194.194 111.539 194.221 111.476 194.268 111.429C194.316 111.383 194.379 111.356 194.446 111.356H194.876C194.943 111.356 195.006 111.383 195.054 111.429C195.101 111.476 195.128 111.539 195.128 111.606C195.128 111.673 195.102 111.737 195.054 111.784C195.007 111.832 194.943 111.858 194.876 111.858Z" fill="#455A64"/>
<path d="M21.674 64.163C21.674 68.021 19.282 71.999 16.337 71.999C13.392 71.999 11 68.029 11 64.163C11 60.2979 13.408 58 16.345 58C19.282 58 21.674 60.2979 21.674 64.163Z" fill="#DEDBFF"/>
<path d="M14.124 87.15H13.849C13.849 85.83 14.54 85.169 15.21 84.53C15.879 83.891 16.488 83.306 16.488 82.1C16.488 80.893 15.868 80.298 15.21 79.67C14.551 79.041 13.849 78.369 13.849 77.049C13.849 75.73 14.54 75.068 15.21 74.429C15.879 73.79 16.488 73.206 16.488 71.999H16.764C16.764 73.319 16.072 73.98 15.403 74.619C14.733 75.258 14.122 75.843 14.122 77.049C14.122 78.256 14.744 78.848 15.403 79.479C16.061 80.11 16.764 80.78 16.764 82.1C16.764 83.419 16.072 84.081 15.403 84.72C14.733 85.359 14.124 85.943 14.124 87.15Z" fill="#799EB0"/>
<path d="M16.3449 71.603L15.4189 73.52H17.2709L16.3449 71.603Z" fill="#407BFF"/>
<path d="M16.656 72.361H16.031C15.934 72.36 15.84 72.321 15.772 72.252C15.703 72.182 15.665 72.089 15.665 71.991C15.665 71.894 15.704 71.802 15.773 71.733C15.841 71.665 15.934 71.626 16.031 71.625H16.656C16.754 71.625 16.847 71.664 16.917 71.732C16.986 71.801 17.025 71.894 17.026 71.991C17.026 72.089 16.987 72.183 16.917 72.253C16.848 72.322 16.754 72.361 16.656 72.361Z" fill="#455A64"/>
<path d="M80 2.5C80 2.9945 79.853 3.4778 79.579 3.8889C79.304 4.3 78.914 4.6205 78.457 4.8097C78 4.9989 77.497 5.0484 77.012 4.952C76.527 4.8555 76.082 4.6174 75.732 4.2678C75.383 3.9181 75.144 3.4727 75.048 2.9877C74.952 2.5028 75.001 2.0001 75.19 1.5433C75.38 1.0865 75.7 0.695999 76.111 0.421299C76.522 0.146599 77.006 0 77.5 0C78.163 0.0017 78.797 0.2657 79.266 0.7341C79.734 1.2026 79.998 1.8375 80 2.5Z" fill="#5BC77B"/>
<path d="M172.022 189.481V83.215C172.022 81.439 170.583 80 168.807 80H23.975C22.199 80 20.76 81.439 20.76 83.215V189.481C20.76 193.032 23.639 195.911 27.19 195.911H165.592C169.143 195.911 172.022 193.032 172.022 189.481Z" fill="#FAFAFA"/>
<path d="M84.88 112.903H65.6287C64.8027 112.903 64.1331 113.573 64.1331 114.399V114.399C64.1331 115.225 64.8027 115.894 65.6287 115.894H84.88C85.706 115.894 86.3757 115.225 86.3757 114.399V114.399C86.3757 113.573 85.706 112.903 84.88 112.903Z" fill="#E1E7E9"/>
<path d="M139.745 119.634H65.6287C64.8027 119.634 64.1331 120.304 64.1331 121.13C64.1331 121.956 64.8027 122.625 65.6287 122.625H139.745C140.571 122.625 141.241 121.956 141.241 121.13C141.241 120.304 140.571 119.634 139.745 119.634Z" fill="#E1E7E9"/>
<path d="M141.241 131.599H118.257V148.051H141.241V131.599Z" fill="#FAFCFD"/>
<path d="M132.596 137.581L125.671 145.059H139.016L132.596 137.581Z" fill="#C4C4C4"/>
<path d="M123.446 138.704C124.265 138.704 124.929 138.034 124.929 137.208C124.929 136.382 124.265 135.712 123.446 135.712C122.627 135.712 121.963 136.382 121.963 137.208C121.963 138.034 122.627 138.704 123.446 138.704Z" fill="#C4C4C4"/>
<path d="M126.017 140.198L121.593 145.059H130.119L126.017 140.198Z" fill="#DEDEDE"/>
<path d="M116.774 131.599H93.79V148.051H116.774V131.599Z" fill="#FAFCFD"/>
<path d="M108.129 137.581L101.204 145.059H114.549L108.129 137.581Z" fill="#C4C4C4"/>
<path d="M98.9789 138.704C99.7979 138.704 100.462 138.034 100.462 137.208C100.462 136.382 99.7979 135.712 98.9789 135.712C98.16 135.712 97.4961 136.382 97.4961 137.208C97.4961 138.034 98.16 138.704 98.9789 138.704Z" fill="#C4C4C4"/>
<path d="M101.55 140.198L97.126 145.059H105.652L101.55 140.198Z" fill="#DEDEDE"/>
<path d="M92.307 131.599H69.323V148.051H92.307V131.599Z" fill="#FAFCFD"/>
<path d="M83.662 137.581L76.7371 145.059H90.0831L83.662 137.581Z" fill="#C4C4C4"/>
<path d="M74.513 138.704C75.332 138.704 75.9958 138.034 75.9958 137.208C75.9958 136.382 75.332 135.712 74.513 135.712C73.6941 135.712 73.0302 136.382 73.0302 137.208C73.0302 138.034 73.6941 138.704 74.513 138.704Z" fill="#C4C4C4"/>
<path d="M77.084 140.198L72.6589 145.059H81.1859L77.084 140.198Z" fill="#DEDEDE"/>
<path d="M20.76 99.817V86.43C20.76 82.879 23.639 80 27.19 80H165.58C169.131 80 172.01 82.879 172.01 86.43V99.817H20.76Z" fill="#5046C2"/>
<path d="M35 90C35 88.3431 33.6569 87 32 87C30.3431 87 29 88.3431 29 90C29 91.6569 30.3431 93 32 93C33.6569 93 35 91.6569 35 90Z" fill="white"/>
<path d="M74 88H61C59.8954 88 59 88.8954 59 90C59 91.1046 59.8954 92 61 92H74C75.1046 92 76 91.1046 76 90C76 88.8954 75.1046 88 74 88Z" fill="#978DFF"/>
<path d="M95 88H82C80.8954 88 80 88.8954 80 90C80 91.1046 80.8954 92 82 92H95C96.1046 92 97 91.1046 97 90C97 88.8954 96.1046 88 95 88Z" fill="#978DFF"/>
<path d="M116 88H103C101.895 88 101 88.8954 101 90C101 91.1046 101.895 92 103 92H116C117.105 92 118 91.1046 118 90C118 88.8954 117.105 88 116 88Z" fill="#978DFF"/>
<path d="M137 88H124C122.895 88 122 88.8954 122 90C122 91.1046 122.895 92 124 92H137C138.105 92 139 91.1046 139 90C139 88.8954 138.105 88 137 88Z" fill="#978DFF"/>
<path d="M35.959 195.911V99.817H20.76V189.481C20.76 193.032 23.639 195.911 27.19 195.911H35.959Z" fill="#F0F0F2"/>
<path d="M172 196V100H21V189.57C21 193.121 23.879 196 27.43 196H172Z" fill="#F0F0F2" fill-opacity="0.5"/>
<path d="M84.88 173.478H65.6287C64.8027 173.478 64.1331 174.148 64.1331 174.974V174.974C64.1331 175.8 64.8027 176.469 65.6287 176.469H84.88C85.706 176.469 86.3757 175.8 86.3757 174.974V174.974C86.3757 174.148 85.706 173.478 84.88 173.478Z" fill="#E1E7E9"/>
<path d="M139.745 180.207H65.6287C64.8027 180.207 64.1331 180.877 64.1331 181.703V181.703C64.1331 182.529 64.8027 183.198 65.6287 183.198H139.745C140.571 183.198 141.241 182.529 141.241 181.703C141.241 180.877 140.571 180.207 139.745 180.207Z" fill="#E1E7E9"/>
<path d="M84.88 155.154H65.6287C64.8027 155.154 64.1331 155.824 64.1331 156.65V156.65C64.1331 157.476 64.8027 158.145 65.6287 158.145H84.88C85.706 158.145 86.3757 157.476 86.3757 156.65V156.65C86.3757 155.824 85.706 155.154 84.88 155.154Z" fill="#E1E7E9"/>
<path d="M139.745 161.886H65.6287C64.8027 161.886 64.1331 162.556 64.1331 163.382V163.382C64.1331 164.208 64.8027 164.877 65.6287 164.877H139.745C140.571 164.877 141.241 164.208 141.241 163.382C141.241 162.556 140.571 161.886 139.745 161.886Z" fill="#E1E7E9"/>
<path fill-rule="evenodd" clip-rule="evenodd" d="M103 131C96.373 131 91 136.373 91 143C91 149.627 96.373 155 103 155C109.627 155 115 149.627 115 143C115 136.373 109.627 131 103 131ZM108.201 140.971C108.297 140.861 108.37 140.734 108.416 140.596C108.462 140.458 108.479 140.312 108.468 140.167C108.457 140.022 108.416 139.881 108.349 139.751C108.283 139.622 108.191 139.508 108.079 139.415C107.967 139.321 107.838 139.252 107.699 139.209C107.56 139.167 107.413 139.153 107.269 139.167C107.124 139.182 106.984 139.226 106.856 139.296C106.729 139.366 106.616 139.461 106.526 139.575L101.835 145.203L99.408 142.774C99.202 142.575 98.926 142.466 98.64 142.468C98.354 142.47 98.081 142.585 97.878 142.787C97.676 142.99 97.561 143.263 97.559 143.549C97.556 143.835 97.666 144.111 97.865 144.317L101.138 147.589C101.245 147.697 101.373 147.78 101.515 147.835C101.656 147.89 101.807 147.914 101.958 147.908C102.11 147.901 102.258 147.862 102.394 147.795C102.53 147.728 102.65 147.633 102.747 147.516L108.201 140.971Z" fill="#5046C2"/>
<g filter="url(#filter0_i_128_218)">
<path d="M45.3477 123.747H9.146C7.37041 123.747 5.93103 125.186 5.93103 126.962V139.601C5.93103 141.377 7.37041 142.816 9.146 142.816H45.3477C47.1233 142.816 48.5627 141.377 48.5627 139.601V126.962C48.5627 125.186 47.1233 123.747 45.3477 123.747Z" fill="#5046C2"/>
<path d="M45.4167 145H9.21497C7.43938 145 6 146.439 6 148.215V192.636C6 194.412 7.43938 195.851 9.21497 195.851H45.4167C47.1923 195.851 48.6317 194.412 48.6317 192.636V148.215C48.6317 146.439 47.1923 145 45.4167 145Z" fill="#FAFAFA"/>
<path d="M48.728 193V148C48.728 146.343 47.385 145 45.728 145H9C7.343 145 6 146.343 6 148V193C6 194.657 7.343 196 9 196H45.728C47.385 196 48.728 194.657 48.728 193Z" fill="#F0F0F2" fill-opacity="0.5"/>
<path d="M20.3761 129.355H12.6167C11.7907 129.355 11.1211 130.025 11.1211 130.851V130.851C11.1211 131.677 11.7907 132.346 12.6167 132.346H20.3761C21.2021 132.346 21.8717 131.677 21.8717 130.851V130.851C21.8717 130.025 21.2021 129.355 20.3761 129.355Z" fill="#978DFF"/>
<path d="M20.3761 149.546H12.6167C11.7907 149.546 11.1211 150.216 11.1211 151.042C11.1211 151.868 11.7907 152.537 12.6167 152.537H20.3761C21.2021 152.537 21.8717 151.868 21.8717 151.042C21.8717 150.216 21.2021 149.546 20.3761 149.546Z" fill="#E1E7E9"/>
<path d="M20.3761 164.504H12.6167C11.7907 164.504 11.1211 165.174 11.1211 166V166C11.1211 166.826 11.7907 167.495 12.6167 167.495H20.3761C21.2021 167.495 21.8717 166.826 21.8717 166V166C21.8717 165.174 21.2021 164.504 20.3761 164.504Z" fill="#E1E7E9"/>
<path d="M20.3761 179.458H12.6167C11.7907 179.458 11.1211 180.128 11.1211 180.954V180.954C11.1211 181.78 11.7907 182.449 12.6167 182.449H20.3761C21.2021 182.449 21.8717 181.78 21.8717 180.954V180.954C21.8717 180.128 21.2021 179.458 20.3761 179.458Z" fill="#E1E7E9"/>
<path d="M26.6782 136.085H12.6167C11.7907 136.085 11.1211 136.755 11.1211 137.581C11.1211 138.407 11.7907 139.076 12.6167 139.076H26.6782C27.5042 139.076 28.1738 138.407 28.1738 137.581C28.1738 136.755 27.5042 136.085 26.6782 136.085Z" fill="white"/>
<path d="M28.1738 156.277H11.1211V159.268H28.1738V156.277Z" fill="#E1E7E9"/>
<path d="M28.1738 171.232H11.1211V174.223H28.1738V171.232Z" fill="#E1E7E9"/>
<path d="M28.1738 186.188H11.1211V189.179H28.1738V186.188Z" fill="#E1E7E9"/>
<path fill-rule="evenodd" clip-rule="evenodd" d="M27 165C23.686 165 21 167.686 21 171C21 174.314 23.686 177 27 177C30.314 177 33 174.314 33 171C33 167.686 30.314 165 27 165ZM29.601 169.985C29.649 169.931 29.685 169.867 29.708 169.798C29.731 169.729 29.74 169.656 29.734 169.583C29.728 169.511 29.708 169.44 29.675 169.376C29.641 169.311 29.595 169.254 29.539 169.207C29.484 169.161 29.419 169.126 29.349 169.105C29.28 169.083 29.207 169.076 29.134 169.084C29.062 169.091 28.992 169.113 28.928 169.148C28.864 169.183 28.808 169.23 28.763 169.287L26.417 172.101L25.204 170.887C25.101 170.788 24.963 170.733 24.82 170.734C24.677 170.735 24.54 170.793 24.439 170.894C24.338 170.995 24.281 171.132 24.279 171.275C24.278 171.418 24.333 171.555 24.433 171.658L26.069 173.295C26.123 173.348 26.187 173.39 26.257 173.417C26.328 173.445 26.404 173.457 26.479 173.454C26.555 173.45 26.629 173.431 26.697 173.398C26.765 173.364 26.825 173.316 26.873 173.258L29.601 169.985Z" fill="#5046C2"/>
</g>
<path d="M189.064 75.544C189.064 80.265 186.137 85.138 182.532 85.138C178.927 85.138 176 80.275 176 75.544C176 70.813 178.924 68 182.532 68C186.141 68 189.064 70.813 189.064 75.544Z" fill="#DEDBFF"/>
<path d="M179.811 103.679H179.474C179.474 102.063 180.32 101.254 181.14 100.472C181.959 99.6889 182.704 98.9739 182.704 97.4969C182.704 96.0199 181.966 95.2949 181.16 94.5159C180.354 93.7369 179.494 92.9239 179.494 91.3089C179.494 89.6939 180.34 88.8939 181.16 88.1089C181.979 87.3229 182.725 86.6109 182.725 85.1379H183.062C183.062 86.7499 182.215 87.5589 181.396 88.3449C180.576 89.1309 179.811 89.8419 179.811 91.3159C179.811 92.7899 180.573 93.5209 181.379 94.2899C182.185 95.0589 183.045 95.8819 183.045 97.4969C183.045 99.1129 182.198 99.9219 181.379 100.704C180.56 101.487 179.811 102.202 179.811 103.679Z" fill="#799EB0"/>
<path d="M182.532 84.652L181.396 86.996H183.665L182.532 84.652Z" fill="#407BFF"/>
<path d="M182.913 85.586H182.148C182.029 85.585 181.915 85.538 181.832 85.454C181.748 85.37 181.7 85.256 181.699 85.137C181.699 85.018 181.746 84.904 181.83 84.819C181.914 84.734 182.028 84.686 182.148 84.686H182.913C182.972 84.686 183.031 84.697 183.086 84.72C183.14 84.743 183.19 84.776 183.232 84.818C183.273 84.86 183.306 84.91 183.329 84.965C183.351 85.02 183.362 85.078 183.362 85.137C183.362 85.256 183.315 85.37 183.23 85.455C183.146 85.539 183.032 85.586 182.913 85.586Z" fill="#455A64"/>
<path d="M6.85202 92.847C6.85202 95.222 5.37902 97.673 3.56602 97.673C1.75202 97.673 0.280029 95.227 0.280029 92.847C0.280029 90.467 1.75002 89.052 3.56602 89.052C5.38102 89.052 6.85202 90.467 6.85202 92.847Z" fill="#C6D7FF"/>
<path d="M2.19699 107H2.02698C2.02698 106.187 2.45299 105.78 2.86499 105.387C3.27699 104.993 3.65198 104.633 3.65198 103.89C3.65198 103.147 3.28098 102.783 2.87498 102.391C2.46998 101.999 2.03699 101.59 2.03699 100.777C2.03699 99.965 2.46298 99.563 2.87498 99.167C3.28698 98.772 3.66199 98.414 3.66199 97.673H3.83199C3.83199 98.484 3.40599 98.891 2.99399 99.286C2.58199 99.681 2.19699 100.039 2.19699 100.781C2.19699 101.522 2.57999 101.89 2.98499 102.277C3.39099 102.664 3.82298 103.078 3.82298 103.89C3.82298 104.703 3.39799 105.11 2.98499 105.504C2.57299 105.897 2.19699 106.257 2.19699 107Z" fill="#799EB0"/>
<path d="M3.56601 97.429L2.99402 98.608H4.13602L3.56601 97.429Z" fill="#407BFF"/>
<path d="M3.757 97.8981H3.37199C3.31199 97.8981 3.255 97.8741 3.213 97.8321C3.171 97.7891 3.147 97.7321 3.146 97.6731C3.146 97.6131 3.17001 97.5551 3.21201 97.5121C3.25501 97.4701 3.31199 97.4461 3.37199 97.4451H3.757C3.787 97.4451 3.81599 97.4511 3.84399 97.4631C3.87099 97.4741 3.89601 97.4911 3.91701 97.5121C3.93801 97.5331 3.955 97.5581 3.966 97.5861C3.977 97.6131 3.983 97.6431 3.983 97.6731C3.983 97.7321 3.95901 97.7901 3.91701 97.8321C3.87401 97.8741 3.817 97.8981 3.757 97.8981Z" fill="#455A64"/>
<defs>
<filter id="filter0_i_128_218" x="5.93103" y="123.747" width="42.797" height="80.2531" filterUnits="userSpaceOnUse" color-interpolation-filters="sRGB">
<feFlood flood-opacity="0" result="BackgroundImageFix"/>
<feBlend mode="normal" in="SourceGraphic" in2="BackgroundImageFix" result="shape"/>
<feColorMatrix in="SourceAlpha" type="matrix" values="0 0 0 0 0 0 0 0 0 0 0 0 0 0 0 0 0 0 127 0" result="hardAlpha"/>
<feOffset dy="8"/>
<feGaussianBlur stdDeviation="12"/>
<feComposite in2="hardAlpha" operator="arithmetic" k2="-1" k3="1"/>
<feColorMatrix type="matrix" values="0 0 0 0 0 0 0 0 0 0 0 0 0 0 0 0 0 0 0.12 0"/>
<feBlend mode="normal" in2="shape" result="effect1_innerShadow_128_218"/>
</filter>
</defs>
</svg>
