<svg width="103" height="30" viewBox="0 0 103 30" fill="none" xmlns="http://www.w3.org/2000/svg">
<path d="M8.85263 5.9993C10.2822 5.9993 11.5771 6.37223 12.7373 7.11809C13.8976 7.84324 14.8091 8.85844 15.4722 10.1637C16.1559 11.469 16.4977 12.9503 16.4977 14.6078C16.4977 16.2653 16.1663 17.757 15.5032 19.083C14.8402 20.3882 13.9287 21.4138 12.7684 22.1596C11.6289 22.8848 10.365 23.2474 8.97694 23.2474C7.98246 23.2474 7.03977 23.0505 6.14888 22.6569C5.27871 22.2425 4.55356 21.7452 3.97345 21.1652V27.2564C3.97345 27.7951 3.79735 28.2405 3.44513 28.5927C3.09292 28.9656 2.64748 29.1521 2.1088 29.1521C1.57011 29.1521 1.12468 28.976 0.77246 28.6238C0.420247 28.2715 0.244141 27.8158 0.244141 27.2564V8.20581C0.244141 7.66713 0.420247 7.22169 0.77246 6.86947C1.12468 6.49654 1.57011 6.31007 2.1088 6.31007C2.64748 6.31007 3.09292 6.49654 3.44513 6.86947C3.79735 7.22169 3.97345 7.66713 3.97345 8.20581V8.33012C4.47069 7.70857 5.16476 7.16988 6.05565 6.71408C6.94654 6.23756 7.87887 5.9993 8.85263 5.9993ZM8.38647 19.8288C9.71242 19.8288 10.8001 19.3316 11.6496 18.3371C12.4991 17.3426 12.9238 16.0995 12.9238 14.6078C12.9238 13.1161 12.4991 11.8834 11.6496 10.9096C10.8209 9.91507 9.73319 9.41783 8.38647 9.41783C7.03977 9.41783 5.9417 9.91507 5.09224 10.9096C4.24279 11.8834 3.81806 13.1161 3.81806 14.6078C3.81806 16.0995 4.24279 17.3426 5.09224 18.3371C5.9417 19.3316 7.03977 19.8288 8.38647 19.8288ZM28.2465 5.9993C28.868 5.9993 29.386 6.1754 29.8003 6.52762C30.2354 6.87983 30.453 7.29419 30.453 7.77072C30.453 8.41299 30.2873 8.8999 29.9557 9.23137C29.6243 9.54214 29.2306 9.69753 28.7748 9.69753C28.464 9.69753 28.1119 9.62499 27.7181 9.47999C27.656 9.4593 27.511 9.41783 27.2831 9.35568C27.0759 9.29352 26.848 9.26244 26.5994 9.26244C26.0607 9.26244 25.5427 9.42822 25.0455 9.75969C24.5482 10.0912 24.1339 10.5988 23.8024 11.2825C23.4916 11.9455 23.3362 12.7431 23.3362 13.6755V21.0408C23.3362 21.5796 23.1601 22.0353 22.8079 22.4083C22.4557 22.7605 22.0103 22.9366 21.4716 22.9366C20.9329 22.9366 20.4875 22.7605 20.1352 22.4083C19.7831 22.0353 19.6069 21.5796 19.6069 21.0408V8.20581C19.6069 7.66713 19.7831 7.22169 20.1352 6.86947C20.4875 6.49654 20.9329 6.31007 21.4716 6.31007C22.0103 6.31007 22.4557 6.49654 22.8079 6.86947C23.1601 7.22169 23.3362 7.66713 23.3362 8.20581V8.60981C23.8128 7.76036 24.4965 7.11809 25.3873 6.683C26.2783 6.2272 27.2313 5.9993 28.2465 5.9993ZM47.3012 14.2349C47.2805 14.7321 47.0837 15.1361 46.7107 15.4469C46.3378 15.7577 45.9027 15.913 45.4055 15.913H35.1499C35.3985 17.1355 35.9683 18.0989 36.8591 18.8033C37.75 19.487 38.7549 19.8288 39.8737 19.8288C40.7231 19.8288 41.3861 19.7563 41.8626 19.6113C42.3392 19.4455 42.7121 19.2798 42.9814 19.114C43.2715 18.9276 43.4683 18.8033 43.5719 18.7411C43.9448 18.5546 44.2971 18.4614 44.6285 18.4614C45.0636 18.4614 45.4365 18.6168 45.7473 18.9276C46.0581 19.2383 46.2135 19.6009 46.2135 20.0153C46.2135 20.5747 45.9234 21.0823 45.3433 21.5381C44.7632 22.0146 43.9863 22.4187 43.0125 22.7501C42.0387 23.0816 41.0546 23.2474 40.0601 23.2474C38.3198 23.2474 36.797 22.8848 35.4917 22.1596C34.2071 21.4345 33.2127 20.44 32.5083 19.1762C31.8039 17.8916 31.4516 16.4518 31.4516 14.8564C31.4516 13.0746 31.8246 11.5104 32.5704 10.1637C33.3163 8.81697 34.3004 7.79144 35.5228 7.08701C36.7452 6.36187 38.0505 5.9993 39.4386 5.9993C40.806 5.9993 42.0906 6.37223 43.2922 7.11809C44.5146 7.86395 45.4883 8.86882 46.2135 10.1326C46.9387 11.3964 47.3012 12.7638 47.3012 14.2349ZM39.4386 9.41783C37.0352 9.41783 35.616 10.547 35.1809 12.8053H43.3233V12.5877C43.2404 11.7176 42.8156 10.9717 42.0491 10.3502C41.2825 9.72861 40.4124 9.41783 39.4386 9.41783ZM69.5862 5.9993C71.6374 5.9993 73.0566 6.63121 73.8439 7.89503C74.6312 9.13813 75.0248 10.8681 75.0248 13.085V21.0408C75.0248 21.5796 74.8487 22.0353 74.4965 22.4083C74.1443 22.7605 73.6989 22.9366 73.1601 22.9366C72.6215 22.9366 72.1761 22.7605 71.8238 22.4083C71.4717 22.0353 71.2955 21.5796 71.2955 21.0408V13.085C71.2955 11.9455 71.0676 11.0546 70.6118 10.4123C70.1767 9.7493 69.3998 9.41783 68.281 9.41783C67.1208 9.41783 66.2092 9.77007 65.5461 10.4745C64.9039 11.1582 64.5827 12.0283 64.5827 13.085V21.0408C64.5827 21.5796 64.4067 22.0353 64.0544 22.4083C63.7023 22.7605 63.2568 22.9366 62.7181 22.9366C62.1795 22.9366 61.734 22.7605 61.3817 22.4083C61.0296 22.0353 60.8534 21.5796 60.8534 21.0408V13.085C60.8534 11.9455 60.6256 11.0546 60.1697 10.4123C59.7346 9.7493 58.9577 9.41783 57.8389 9.41783C56.6787 9.41783 55.7671 9.77007 55.1041 10.4745C54.4618 11.1582 54.1407 12.0283 54.1407 13.085V21.0408C54.1407 21.5796 53.9646 22.0353 53.6123 22.4083C53.2602 22.7605 52.8147 22.9366 52.276 22.9366C51.7374 22.9366 51.2919 22.7605 50.9397 22.4083C50.5875 22.0353 50.4114 21.5796 50.4114 21.0408V8.20581C50.4114 7.66713 50.5875 7.22169 50.9397 6.86947C51.2919 6.49654 51.7374 6.31007 52.276 6.31007C52.8147 6.31007 53.2602 6.49654 53.6123 6.86947C53.9646 7.22169 54.1407 7.66713 54.1407 8.20581V8.70305C54.7001 7.95719 55.4045 7.32527 56.2539 6.80731C57.1241 6.26863 58.0875 5.9993 59.1442 5.9993C61.7547 5.9993 63.4226 7.13881 64.1477 9.41783C64.6242 8.54766 65.339 7.76036 66.292 7.05594C67.2658 6.35151 68.3639 5.9993 69.5862 5.9993ZM82.5727 21.0408C82.5727 21.5796 82.3967 22.0353 82.0444 22.4083C81.6923 22.7605 81.2468 22.9366 80.7081 22.9366C80.1695 22.9366 79.724 22.7605 79.3718 22.4083C79.0196 22.0353 78.8434 21.5796 78.8434 21.0408V8.20581C78.8434 7.66713 79.0196 7.22169 79.3718 6.86947C79.724 6.49654 80.1695 6.31007 80.7081 6.31007C81.2468 6.31007 81.6923 6.49654 82.0444 6.86947C82.3967 7.22169 82.5727 7.66713 82.5727 8.20581V21.0408ZM80.677 4.29003C79.9726 4.29003 79.4754 4.17608 79.1853 3.94818C78.8953 3.72027 78.7502 3.31626 78.7502 2.73615V2.14568C78.7502 1.56557 78.9056 1.16156 79.2164 0.933651C79.5271 0.705748 80.0244 0.591797 80.7081 0.591797C81.4333 0.591797 81.9409 0.705748 82.2309 0.933651C82.521 1.16156 82.666 1.56557 82.666 2.14568V2.73615C82.666 3.33699 82.5106 3.75135 82.1998 3.97925C81.9098 4.18644 81.4022 4.29003 80.677 4.29003ZM102.379 14.6389C102.379 16.2964 102.006 17.7881 101.261 19.114C100.515 20.4193 99.4891 21.4345 98.1838 22.1596C96.899 22.8848 95.4801 23.2474 93.9262 23.2474C92.3519 23.2474 90.9223 22.8848 89.6375 22.1596C88.3531 21.4345 87.3378 20.4193 86.592 19.114C85.8461 17.7881 85.4732 16.2964 85.4732 14.6389C85.4732 12.9814 85.8461 11.5 86.592 10.1948C87.3378 8.86882 88.3531 7.84324 89.6375 7.11809C90.9223 6.37223 92.3519 5.9993 93.9262 5.9993C95.4801 5.9993 96.899 6.37223 98.1838 7.11809C99.4891 7.84324 100.515 8.86882 101.261 10.1948C102.006 11.5 102.379 12.9814 102.379 14.6389ZM98.65 14.6389C98.65 13.6237 98.4324 12.7224 97.9974 11.9351C97.5827 11.1271 97.0135 10.5055 96.2881 10.0705C95.584 9.63538 94.7964 9.41783 93.9262 9.41783C93.056 9.41783 92.2587 9.63538 91.5332 10.0705C90.8291 10.5055 90.259 11.1271 89.824 11.9351C89.4093 12.7224 89.2024 13.6237 89.2024 14.6389C89.2024 15.654 89.4093 16.5553 89.824 17.3426C90.259 18.1299 90.8291 18.7411 91.5332 19.1762C92.2587 19.6113 93.056 19.8288 93.9262 19.8288C94.7964 19.8288 95.584 19.6113 96.2881 19.1762C97.0135 18.7411 97.5827 18.1299 97.9974 17.3426C98.4324 16.5553 98.65 15.654 98.65 14.6389Z" fill="#6558F5"/>
</svg>
