<svg width="281" height="279" viewBox="0 0 281 279" fill="none" xmlns="http://www.w3.org/2000/svg">
<path fill-rule="evenodd" clip-rule="evenodd" d="M81.8409 59C81.8409 26.4152 108.256 0 140.841 0C173.426 0 199.841 26.4152 199.841 59V99C199.841 103.971 195.812 108 190.841 108C185.87 108 181.841 103.971 181.841 99V59C181.841 36.3563 163.485 18 140.841 18C118.197 18 99.8409 36.3563 99.8409 59V99C99.8409 103.971 95.8115 108 90.8409 108C85.8704 108 81.8409 103.971 81.8409 99V59Z" fill="#808080"/>
<path fill-rule="evenodd" clip-rule="evenodd" d="M69.8409 98.5V79H29.8012C24.7015 79 20.4188 82.8375 19.8612 87.9066L6.54089 209H274.141L260.821 87.9066C260.263 82.8375 255.98 79 250.881 79H210.841V98.5C210.841 109.822 201.663 119 190.341 119C179.019 119 169.841 109.822 169.841 98.5V79H110.841V98.5C110.841 109.822 101.663 119 90.3409 119C79.0191 119 69.8409 109.822 69.8409 98.5ZM275.351 220H5.33089L0.0611659 267.907C-0.590036 273.827 4.04548 279 10.0012 279H270.681C276.636 279 281.272 273.827 280.621 267.907L275.351 220Z" fill="#808080"/>
</svg>
